<svg width="128" height="128" viewBox="0 0 128 128" fill="none" xmlns="http://www.w3.org/2000/svg">
<path d="M14.7565 7.79272H89.3679C97.4922 7.79272 104.124 14.4249 104.124 22.5492V99.316C104.124 107.44 97.4922 114.073 89.3679 114.073H14.7565C6.63212 114.073 0 107.44 0 99.316V22.3834C0 14.4248 6.63212 7.79272 14.7565 7.79272Z" fill="#4A566E"/>
<path d="M48.2487 77.2642L26.3627 55.3782L0 81.7409V87.2124V99.1502C0 107.275 6.63212 113.907 14.7565 113.907H89.3679C97.4922 113.907 104.124 107.275 104.124 99.1502V87.2124V70.7979L79.4197 45.9274L48.2487 77.2642Z" fill="#00B594"/>
<path d="M47.5858 52.228C52.7137 52.228 56.8707 48.071 56.8707 42.9431C56.8707 37.8151 52.7137 33.6581 47.5858 33.6581C42.4578 33.6581 38.3008 37.8151 38.3008 42.9431C38.3008 48.071 42.4578 52.228 47.5858 52.228Z" fill="#FFCC03"/>
<path d="M104.124 120.207C117.31 120.207 128 109.518 128 96.3316C128 83.1455 117.31 72.456 104.124 72.456C90.938 72.456 80.2485 83.1455 80.2485 96.3316C80.2485 109.518 90.938 120.207 104.124 120.207Z" fill="white"/>
<path d="M92.8495 99.8135C91.0257 99.8135 89.3677 98.3213 89.3677 96.3316C89.3677 94.342 90.8599 92.8498 92.8495 92.8498H115.399C117.388 92.8498 118.881 94.342 118.881 96.3316C118.881 98.3213 117.388 99.8135 115.399 99.8135H92.8495Z" fill="#00B594"/>
<path d="M107.606 107.606C107.606 109.596 106.114 111.088 104.124 111.088C102.134 111.088 100.642 109.596 100.642 107.606V85.2228C100.642 83.399 102.134 81.741 104.124 81.741C105.948 81.741 107.606 83.2332 107.606 85.2228V107.606Z" fill="#00B594"/>
</svg>
