<svg width="128" height="128" viewBox="0 0 128 128" fill="none" xmlns="http://www.w3.org/2000/svg">
<circle cx="64" cy="64" r="64" fill="#F3F3F3"/>
<path d="M91.7789 45.2464H74.3459L70.8256 39.3325C70.4812 38.7543 69.8582 38.4 69.1853 38.4H58.1137C57.4407 38.4 56.8175 38.7543 56.4733 39.3325L52.9531 45.2464H47.2325V43.9429C47.2325 42.8887 46.3779 42.0341 45.3237 42.0341H38.2607C37.2063 42.0341 36.3518 42.8887 36.3518 43.9429V45.2464H35.5203C32.8691 45.2464 30.7202 47.3954 30.7202 50.0462V84.7999C30.7202 87.4509 32.8691 89.6 35.5201 89.6H91.7789C94.4299 89.6 96.579 87.4509 96.579 84.7999V50.0462C96.5792 47.3954 94.4299 45.2464 91.7789 45.2464ZM63.6495 81.0859C56.1037 81.0859 49.9866 74.9689 49.9866 67.4229C49.9866 59.8772 56.1037 53.76 63.6495 53.76C71.1953 53.76 77.3123 59.8772 77.3123 67.4229C77.3123 74.9689 71.1953 81.0859 63.6495 81.0859ZM88.7841 55.1423H82.8027C81.7485 55.1423 80.8939 54.2876 80.8939 53.2332C80.8939 52.1788 81.7485 51.3242 82.8027 51.3242H88.7841C89.8387 51.3242 90.6932 52.1788 90.6932 53.2332C90.6932 54.2876 89.8385 55.1423 88.7841 55.1423Z" fill="#A7B0C0"/>
<path d="M63.6499 76.9676C68.9214 76.9676 73.1948 72.6942 73.1948 67.4227C73.1948 62.1512 68.9214 57.8778 63.6499 57.8778C58.3784 57.8778 54.105 62.1512 54.105 67.4227C54.105 72.6942 58.3784 76.9676 63.6499 76.9676Z" fill="#A7B0C0"/>
</svg>
