<svg width="24" height="24" viewBox="0 0 24 24" fill="none" xmlns="http://www.w3.org/2000/svg">
<path d="M23.3805 23.3809C23.78 22.9814 24 22.4502 24 21.8853C24 21.3203 23.78 20.7891 23.3805 20.3896L7.91822 4.92733C7.64367 4.65274 7.19846 4.65279 6.92386 4.92733L4.9268 6.92435C4.79494 7.05621 4.72083 7.23504 4.72083 7.4215C4.72083 7.60797 4.79489 7.7868 4.9268 7.91866L20.3891 23.3809C20.8014 23.7933 21.3431 23.9995 21.8848 23.9995C22.4264 23.9995 22.9681 23.7933 23.3805 23.3809Z" fill="#464B52"/>
<path d="M4.92671 6.92439C4.79486 7.05625 4.72075 7.23508 4.72075 7.42155C4.72075 7.60801 4.79481 7.78684 4.92671 7.9187L20.389 23.381C20.8014 23.7933 21.343 23.9995 21.8847 23.9995C22.4263 23.9995 22.968 23.7933 23.3804 23.381L5.92525 5.92586L4.92671 6.92439Z" fill="#292B2F"/>
<path d="M9.17578 18.3521C4.10814 18.3521 0 14.2439 0 9.17628C0 4.10864 4.10814 0.00050354 9.17578 0.00050354C14.2434 0.00050354 18.3516 4.10864 18.3516 9.17628C18.3516 14.2439 14.2434 18.3521 9.17578 18.3521Z" fill="#76CEFB"/>
<path d="M2.69073 2.69107C1.02919 4.3526 0.000148773 6.64652 0.000148773 9.17632C0.000148773 14.2359 4.11638 18.3521 9.17593 18.3521C11.7057 18.3521 13.9996 17.3231 15.6611 15.6615L2.69073 2.69107Z" fill="#6897F4"/>
<path d="M9.17578 15.5278C5.66791 15.5278 2.82422 12.6842 2.82422 9.17628C2.82422 5.66841 5.66791 2.82472 9.17578 2.82472C12.6837 2.82472 15.5273 5.66841 15.5273 9.17628C15.5273 12.6842 12.6837 15.5278 9.17578 15.5278Z" fill="#E1FAFF"/>
<path d="M9.17591 15.5279C10.927 15.5279 12.5149 14.8156 13.665 13.6655L4.68679 4.68721C3.53666 5.83733 2.82435 7.42522 2.82435 9.17633C2.82435 12.6786 5.67365 15.5279 9.17591 15.5279Z" fill="#C7F5FF"/>
</svg>
