<svg width="320" height="320" viewBox="0 0 320 320" fill="none" xmlns="http://www.w3.org/2000/svg">
<path d="M99.1139 123.026L76.6424 153.676C68.1154 165.306 70.4505 181.619 81.8968 190.39L100.697 204.797C107.307 209.862 116.856 205.15 116.856 196.822V158.155L123.41 123.115L99.1139 123.026Z" fill="#4A80AA"/>
<path d="M203.282 158.155V196.822C203.282 205.15 212.831 209.863 219.441 204.797L238.241 190.39C249.688 181.619 252.023 165.305 243.496 153.676L221.024 123.026H192.817L203.282 158.155Z" fill="#4A80AA"/>
<path d="M320 267.287C320 285.612 310.587 301.727 296.332 311.076C288.103 316.472 278.258 319.614 267.673 319.614H52.3269C23.424 319.614 0 296.19 0 267.287C0 238.39 23.424 214.967 52.3269 214.967C72.0352 214.967 89.1879 225.868 98.1118 241.964C99.818 239.299 102.168 237.077 104.937 235.525C105.883 234.991 106.875 234.54 107.911 234.174C109.914 233.465 112.064 233.085 114.305 233.085C119.263 233.085 123.776 234.965 127.182 238.043V220.182C127.182 210.221 134.767 202.025 144.476 201.066V147.483H175.523V201.066C185.233 202.025 192.817 210.221 192.817 220.182V238.043C194.524 236.504 196.5 235.268 198.677 234.412C200.847 233.555 203.216 233.085 205.695 233.085C207.922 233.085 210.054 233.465 212.044 234.16C216.126 235.59 219.583 238.365 221.882 241.951C221.882 241.957 221.888 241.957 221.888 241.964C230.812 225.868 247.965 214.967 267.673 214.967C278.085 214.967 287.781 218.006 295.932 223.241C295.958 223.26 295.983 223.28 296.01 223.292C310.445 232.609 320 248.827 320 267.287Z" fill="#F9F6F9"/>
<path d="M160.406 147.483V201.066C150.696 202.025 143.112 210.221 143.112 220.182V271.035C143.112 275.433 139.546 278.999 135.148 278.999C130.749 278.999 127.183 275.433 127.183 271.035V220.182C127.183 210.221 134.768 202.025 144.477 201.066V147.483H160.406Z" fill="#DDDAEC"/>
<path d="M109.637 319.616H52.3269C23.4303 319.616 0 296.192 0 267.289C0 238.392 23.4303 214.968 52.3269 214.968C62.9057 214.968 72.7502 218.11 80.9791 223.512C66.7239 232.855 57.3107 248.971 57.3107 267.288C57.31 296.192 80.7403 319.616 109.637 319.616Z" fill="#DDDAEC"/>
<path d="M284.311 316.909C279.083 318.666 273.494 319.613 267.673 319.613C238.776 319.613 215.346 296.19 215.346 267.286C215.346 258.098 217.716 249.464 221.875 241.963C221.875 241.957 221.881 241.957 221.881 241.95C221.881 241.957 221.888 241.957 221.888 241.963C230.811 225.867 247.964 214.966 267.672 214.966C273.493 214.966 279.088 215.912 284.31 217.67C271.832 221.855 261.459 230.619 255.169 241.963C255.169 241.957 255.163 241.957 255.163 241.95C255.163 241.957 255.157 241.957 255.157 241.963C250.997 249.464 248.628 258.098 248.628 267.286C248.628 290.369 263.572 309.955 284.311 316.909Z" fill="#DDDAEC"/>
<path d="M146.721 8.05899L100.148 88.0924C93.9109 98.8107 93.5209 111.956 99.1116 123.026L116.854 158.155H203.28L221.022 123.026C226.613 111.957 226.223 98.8107 219.986 88.0924L173.412 8.05899C167.457 -2.17363 152.675 -2.17363 146.721 8.05899Z" fill="#E28086"/>
<path d="M160.068 0.385742C157.937 0.385742 155.805 2.94202 154.582 8.06083L135.427 88.093C132.864 98.8131 132.703 111.955 135.002 123.029L142.297 158.152H116.858L99.1134 123.029C93.5246 111.955 93.9108 98.8131 100.15 88.093L146.721 8.06083C149.702 2.94202 154.885 0.385742 160.068 0.385742Z" fill="#DD636E"/>
<path d="M160.068 123.111C177.895 123.111 192.347 108.659 192.347 90.8314C192.347 73.0041 177.895 58.5522 160.068 58.5522C142.24 58.5522 127.789 73.0041 127.789 90.8314C127.789 108.659 142.24 123.111 160.068 123.111Z" fill="#F9F6F9"/>
<path d="M169.465 121.724C166.491 122.632 163.336 123.115 160.072 123.115C142.243 123.115 127.788 108.66 127.788 90.8313C127.788 73.0024 142.243 58.5547 160.072 58.5547C163.336 58.5547 166.491 59.0378 169.465 59.9453C156.221 63.9629 146.576 76.2674 146.576 90.8313C146.576 105.396 156.222 117.707 169.465 121.724Z" fill="#DDDAEC"/>
<path d="M212.056 234.173C196.423 234.797 192.817 259.393 192.817 259.393V238.042C194.524 236.503 196.501 235.267 198.677 234.411C200.847 233.555 203.216 233.085 205.695 233.085C207.922 233.085 210.054 233.465 212.044 234.16L212.056 234.173Z" fill="#DDDAEC"/>
<path d="M160.066 283.827C157.399 283.827 155.237 281.666 155.237 278.999V217.733C155.237 215.066 157.399 212.904 160.066 212.904C162.733 212.904 164.894 215.066 164.894 217.733V278.999C164.894 281.666 162.733 283.827 160.066 283.827Z" fill="#DDDAEC"/>
<path d="M104.639 267.287C104.639 258.099 102.27 249.465 98.1104 241.964C99.8166 239.299 102.167 237.077 104.935 235.525C105.882 234.991 106.873 234.54 107.91 234.174C118.108 255.427 104.639 267.287 104.639 267.287Z" fill="#DDDAEC"/>
<path d="M160.068 127.939C139.606 127.939 122.959 111.293 122.959 90.8307C122.959 70.3686 139.605 53.7222 160.068 53.7222C180.53 53.7222 197.176 70.3686 197.176 90.8307C197.176 111.293 180.529 127.939 160.068 127.939ZM160.068 63.381C144.931 63.381 132.617 75.6949 132.617 90.8313C132.617 105.968 144.931 118.282 160.068 118.282C175.204 118.282 187.519 105.968 187.519 90.8313C187.519 75.6949 175.204 63.381 160.068 63.381Z" fill="#DD636E"/>
</svg>
