<svg width="29" height="29" viewBox="0 0 29 29" fill="none" xmlns="http://www.w3.org/2000/svg">
<path d="M27.1875 5.4375H7.25C6.24899 5.4375 5.4375 6.24899 5.4375 7.25V27.1875C5.4375 28.1885 6.24899 29 7.25 29H27.1875C28.1885 29 29 28.1885 29 27.1875V7.25C29 6.24899 28.1885 5.4375 27.1875 5.4375ZM27.1875 27.1875H7.25V7.25H27.1875V27.1875Z" fill="#49494D"/>
<path d="M1.8125 1.8125H21.75V3.625H23.5625V1.8125C23.5625 0.81149 22.751 0 21.75 0H1.8125C0.81149 0 0 0.81149 0 1.8125V21.75C0 22.751 0.81149 23.5625 1.8125 23.5625H3.625V21.75H1.8125V1.8125Z" fill="#49494D"/>
<path d="M9.96872 22.6562H24.4687C24.9692 22.6591 25.3773 22.2558 25.3802 21.7553C25.3816 21.5118 25.285 21.278 25.1122 21.1065L21.4872 17.4815C21.1337 17.1301 20.5628 17.1301 20.2093 17.4815L19.0312 18.6597L16.0497 15.6781C15.6962 15.3267 15.1253 15.3267 14.7718 15.6781L9.33434 21.1156C8.98396 21.473 8.98957 22.0468 9.34697 22.3972C9.51327 22.5602 9.73587 22.653 9.96872 22.6562Z" fill="#49494D"/>
<path d="M21.75 15.4062C22.751 15.4062 23.5625 14.5948 23.5625 13.5938C23.5625 12.5927 22.751 11.7812 21.75 11.7812C20.749 11.7812 19.9375 12.5927 19.9375 13.5938C19.9375 14.5948 20.749 15.4062 21.75 15.4062Z" fill="#49494D"/>
</svg>
