<svg width="40" height="40" viewBox="0 0 40 40" fill="none" xmlns="http://www.w3.org/2000/svg">
<path fill-rule="evenodd" clip-rule="evenodd" d="M1.49777 36.2115V3.7886C1.49777 2.14573 2.14565 1.49785 3.78852 1.49785H36.0352C37.6781 1.49785 38.326 2.14573 38.326 3.7886V36.2115C38.326 37.8544 37.6781 38.5022 36.0352 38.5022H3.78852C2.14565 38.5022 1.49777 37.8544 1.49777 36.2115ZM0 3.08372V36.9163C0 38.5104 1.48956 40 3.08364 40H36.74C38.3341 40 39.8237 38.5104 39.8237 36.9163V3.08372C39.8237 1.48956 38.3341 0 36.74 0H3.08364C1.48956 0 0 1.48956 0 3.08372Z" fill="#68B92E"/>
<path fill-rule="evenodd" clip-rule="evenodd" d="M8.9858 31.3652C10.2905 31.3652 10.802 30.824 11.2483 29.9272L17.3852 17.562C17.7438 16.8449 19.7268 13.0104 19.8227 12.5987H19.999C20.0949 13.0103 22.0546 16.798 22.4072 17.5032L28.5445 29.868C29.6058 32.012 31.7587 31.4522 32.4746 30.8012C32.9732 30.3478 32.8405 29.6732 32.5702 29.1023L29.3382 22.9071C27.3176 18.8436 24.9135 14.5509 22.8492 10.4533C21.6033 7.98037 18.2172 8.03223 17.0022 10.3946C16.7221 10.939 16.4883 11.4071 16.1824 11.9536C15.881 12.492 15.6835 12.9914 15.3887 13.5388C15.2345 13.8252 15.1186 13.9852 14.9764 14.272L12.1294 19.707C11.843 20.2187 11.6265 20.7335 11.3658 21.2341L7.31032 28.9848C6.47225 30.6623 7.68546 31.3652 8.98588 31.3652H8.9858Z" fill="#68B92E"/>
</svg>
