<svg width="85" height="85" viewBox="0 0 85 85" fill="none" xmlns="http://www.w3.org/2000/svg">
<g clip-path="url(#clip0)">
<path d="M66.8855 30.1285C64.4152 30.1285 62.0592 30.6262 59.9115 31.5256L54.7758 21.561H61.9538C62.7325 21.561 63.366 22.1946 63.366 22.9733C63.366 23.752 62.7325 24.3855 61.9538 24.3855H60.4222C59.6161 24.3855 58.9629 25.0389 58.9629 25.8448C58.9629 26.6508 59.6161 27.3042 60.4222 27.3042H61.9538C64.3418 27.3042 66.2847 25.3613 66.2847 22.9733C66.2847 20.5852 64.342 18.6423 61.9538 18.6423H52.3821C51.8732 18.6423 51.401 18.9075 51.136 19.342C50.8711 19.7765 50.8517 20.3178 51.0848 20.7702L53.6386 25.7256H32.5769L30.4521 21.561H33.8123C34.6184 21.561 35.2716 20.9076 35.2716 20.1017C35.2716 19.2957 34.6184 18.6423 33.8123 18.6423H24.2404C23.4342 18.6423 22.781 19.2957 22.781 20.1017C22.781 20.9076 23.4342 21.561 24.2404 21.561H27.1754L30.0116 27.1197L26.6781 32.2844C24.1265 30.9097 21.2102 30.1285 18.1145 30.1285C8.12618 30.1285 0 38.2545 0 48.2428C0 58.231 8.12618 66.3572 18.1145 66.3572C27.6114 66.3572 35.4244 59.0105 36.17 49.7021H40.4521L38.7886 55.1149H37.8309C37.0248 55.1149 36.3716 55.7683 36.3716 56.5742C36.3716 57.3802 37.0248 58.0335 37.8309 58.0335H43.0845C43.8907 58.0335 44.5439 57.3802 44.5439 56.5742C44.5439 55.7683 43.8907 55.1149 43.0845 55.1149H41.8419L43.7622 48.8662L55.9051 30.123L57.3195 32.8672C52.191 36.0695 48.7711 41.7639 48.7711 48.2428C48.7711 58.231 56.8972 66.3572 66.8857 66.3572C76.874 66.3572 85.0002 58.231 85.0002 48.2428C85 38.2545 76.8738 30.1285 66.8855 30.1285ZM31.5452 30.1256L40.044 46.7834H36.1698C35.7491 41.5327 33.0795 36.907 29.1274 33.8714L31.5452 30.1256ZM33.2387 46.7834H20.7934L27.5377 36.3348C30.6916 38.8361 32.8341 42.5587 33.2387 46.7834ZM18.1145 63.4385C9.73534 63.4385 2.91868 56.6219 2.91868 48.2428C2.91868 39.8638 9.73534 33.047 18.1145 33.047C20.6273 33.047 22.9974 33.6638 25.0876 34.7482L16.8882 47.4512C16.5985 47.9001 16.5773 48.4716 16.833 48.9407C17.0885 49.4098 17.5802 49.7019 18.1145 49.7019H33.2387C32.5016 57.3988 26.0011 63.4385 18.1145 63.4385ZM42.5774 45.3266L34.066 28.6441H53.3855L42.5774 45.3266ZM66.8855 63.4385C58.5064 63.4385 51.6895 56.6217 51.6895 48.2428C51.6895 42.8922 54.4716 38.1823 58.6628 35.4739L65.5883 48.9113C65.8475 49.4139 66.3576 49.7023 66.8867 49.7023C67.1118 49.7023 67.3403 49.6499 67.5541 49.5398C68.2707 49.1707 68.5521 48.2906 68.1828 47.574L61.2552 34.1327C62.9979 33.435 64.8966 33.0468 66.8855 33.0468C75.2647 33.0468 82.0813 39.8636 82.0813 48.2426C82.0813 56.6219 75.2647 63.4385 66.8855 63.4385Z" fill="black"/>
</g>
<defs>
<clipPath id="clip0">
<rect width="85" height="85" fill="white"/>
</clipPath>
</defs>
</svg>
