<?xml version="1.0" encoding="UTF-8"?>
<!DOCTYPE svg PUBLIC "-//W3C//DTD SVG 1.1//EN" "http://www.w3.org/Graphics/SVG/1.1/DTD/svg11.dtd">
<!-- Creator: CorelDRAW 2020 (64-Bit) -->
<svg xmlns="http://www.w3.org/2000/svg" xml:space="preserve" width="11.6929in" height="8.26772in" version="1.1" style="shape-rendering:geometricPrecision; text-rendering:geometricPrecision; image-rendering:optimizeQuality; fill-rule:evenodd; clip-rule:evenodd"
viewBox="0 0 11692.91 8267.72"
 xmlns:xlink="http://www.w3.org/1999/xlink"
 xmlns:xodm="http://www.corel.com/coreldraw/odm/2003">
 <defs>
  <style type="text/css">
   <![CDATA[
    .fil1 {fill:#F3A089;fill-rule:nonzero}
    .fil6 {fill:#F6B962;fill-rule:nonzero}
    .fil5 {fill:#F29E62;fill-rule:nonzero}
    .fil0 {fill:#F0B5A1;fill-rule:nonzero}
    .fil10 {fill:#EB7979;fill-rule:nonzero}
    .fil2 {fill:#CAE4E7;fill-rule:nonzero}
    .fil3 {fill:#606180;fill-rule:nonzero}
    .fil4 {fill:#4B4D66;fill-rule:nonzero}
    .fil7 {fill:#00B7C0;fill-rule:nonzero}
    .fil8 {fill:#0191B9;fill-rule:nonzero}
    .fil9 {fill:#0B7C9D;fill-rule:nonzero}
   ]]>
  </style>
 </defs>
 <g id="Layer_x0020_1">
  <metadata id="CorelCorpID_0Corel-Layer"/>
  <path class="fil0" d="M2144.99 2923.85c0,0 113.07,249.64 247.65,313.22 0,0 300.5,77.7 554.59,-8.8 0,0 60.03,-30.38 42.31,-72.33 0,0 -157.14,-53.63 -470.48,-100.9 0,0 -102.83,-97.38 -172.04,-235.63l-202.02 104.44z"/>
  <path class="fil1" d="M2672.69 3269.13c-156.04,0 -280.06,-32.06 -280.06,-32.06 -134.57,-63.58 -247.65,-313.22 -247.65,-313.22l202.02 -104.44c69.21,138.25 172.04,235.63 172.04,235.63 113.97,17.19 207.28,35.24 279.86,51.22 6.2,25.96 43.03,46.9 55.32,66.78 10.2,16.47 7.68,41.97 3.63,60.07 -1.22,5.37 -3.44,12.54 -4.51,19.82 -61.52,11.88 -123.24,16.21 -180.65,16.21z"/>
  <path class="fil2" d="M2095.83 2506.2c0,0 170.94,85.78 287.37,284.08 0,0 -15.86,53.26 -155.3,118.61 0,0 -143.85,-272.97 -132.08,-402.69z"/>
  <path class="fil0" d="M2921.61 3184.41c36.75,2.78 76.37,-0.6 112.29,7.71 22.18,5.13 43.26,12.04 59.51,28.68 31.71,32.48 40.13,77.09 18.49,117.39 -7.54,14.06 -18.22,26.96 -34.13,31.81 -6.04,1.86 -12.1,-2.65 -12.1,-2.65 0,0 -14.67,15.36 -30.04,15.79 -15.38,0.44 -16.78,-14.22 -16.78,-14.22 0,0 -25.4,-0.57 -29.63,-4.65 -10.47,-10.29 -3.32,-29.61 -0.82,-40.74 3.76,-16.72 6.1,-40.33 -3.35,-55.58 -13.65,-22.07 -59.94,-45.56 -50.86,-76.78l-12.59 -6.75z"/>
  <path class="fil1" d="M3026.23 3362.38c-1.9,0 -3.79,-0.72 -5.25,-2.17 -2.9,-2.9 -2.9,-7.59 0,-10.51 6.56,-6.57 12.21,-15.08 17.31,-26.06 2.2,-4.75 3.37,-10.18 4.62,-15.93 0.67,-3.17 1.36,-6.3 2.21,-9.41 0.92,-3.31 3.92,-5.44 7.18,-5.44 0.65,0 1.31,0.08 1.96,0.25 3.96,1.1 6.28,5.18 5.2,9.14 -0.79,2.83 -1.4,5.72 -2.03,8.61 -1.36,6.28 -2.75,12.78 -5.67,19.04 -5.83,12.57 -12.46,22.47 -20.26,30.31 -1.46,1.46 -3.35,2.18 -5.26,2.18z"/>
  <path class="fil1" d="M3072.78 3353.85c-1.69,0 -3.4,-0.58 -4.79,-1.75 -3.14,-2.67 -3.53,-7.35 -0.87,-10.48 11.48,-13.58 16.79,-27.82 18.32,-49.11 0.28,-3.86 3.37,-6.92 7.24,-6.92 0.24,0 0.47,0 0.69,0.03 4.1,0.29 7.18,3.85 6.87,7.93 -1.72,24.42 -8.25,41.67 -21.78,57.68 -1.47,1.72 -3.57,2.63 -5.68,2.63z"/>
  <path class="fil3" d="M1245.58 5900.14c2.6,-121.56 103.24,-217.96 224.8,-215.37 121.55,2.62 217.97,103.22 215.37,224.78 -2.59,121.54 -103.23,217.96 -224.79,215.37 -121.54,-2.62 -217.97,-103.24 -215.38,-224.78z"/>
  <path class="fil4" d="M1468.95 6017.19c-60.25,0 -109.08,-48.82 -109.08,-109.06 0,-60.25 48.83,-109.06 109.08,-109.06 60.25,0 109.09,48.81 109.09,109.06 0,60.24 -48.84,109.06 -109.09,109.06z"/>
  <path class="fil5" d="M1263.44 5702.61c0,0 -7.56,-43.46 74.87,-66.8 0,0 186.69,-59.03 313.65,60.38 0,0 104.98,96.63 68.72,233.27 0,0 -14.54,49.09 -45.7,39.32 0,0 -63.09,2.03 -46.77,-63.83 0,0 23.01,-87.13 -55.78,-146.94 0,0 -87.87,-68.9 -210.81,-23.72 0,0 -97.93,36.76 -98.19,-31.67z"/>
  <path class="fil3" d="M3561.3 5898.99c-2.6,-121.57 -103.25,-217.98 -224.79,-215.39 -121.56,2.62 -217.99,103.22 -215.39,224.79 2.61,121.54 103.25,217.96 224.81,215.36 121.54,-2.61 217.97,-103.23 215.37,-224.76z"/>
  <path class="fil4" d="M3337.93 6016.03c-60.25,0 -109.08,-48.83 -109.08,-109.07 0,-32.87 14.56,-62.37 37.58,-82.35l10.44 68.97c4.59,30.33 30.68,52.11 60.44,52.11 3.04,0 6.12,-0.24 9.22,-0.7 33.42,-5.08 56.4,-36.26 51.33,-69.71l-9.88 -65.24c35.06,18.14 59.02,54.74 59.02,96.91 0,60.24 -48.83,109.07 -109.08,109.07z"/>
  <path class="fil5" d="M3543.44 5701.45c0,0 7.56,-43.46 -74.87,-66.8 0,0 -186.68,-59.02 -313.65,60.4 0,0 -104.98,96.61 -68.72,233.26 0,0 14.54,49.08 45.69,39.31 0,0 63.08,2.03 46.78,-63.82 0,0 -23.02,-87.14 55.78,-146.96 0,0 87.86,-68.9 210.81,-23.72 0,0 97.93,36.78 98.19,-31.67z"/>
  <path class="fil6" d="M2932.76 3213.02c33.43,-5.07 64.61,17.93 69.67,51.33l395.44 2610.93c5.07,33.45 -17.92,64.63 -51.33,69.71 -33.42,5.05 -64.6,-17.97 -69.67,-51.41l-395.44 -2610.89c-5.07,-33.41 17.93,-64.59 51.33,-69.67z"/>
  <path class="fil6" d="M3237.76 5262.2c-23.19,0.69 -30.67,0.77 -44.09,23.2l-335.31 560.82 -1349.62 0c-35.06,0 -63.41,28.56 -63.41,63.62 0,35.05 28.36,63.4 63.41,63.4l1408.22 0c2.11,0 19.5,-1.27 34.15,-10.28 14.65,-8.98 21.06,-20.06 24.46,-25.81l269.97 -452.01c21.5,-35.94 31.68,-96.68 23.33,-150.07 -2.38,-15.08 -13.47,-62.66 -31.11,-72.88z"/>
  <path class="fil2" d="M2418.65 5833.87l-4.89 -50.01 466.96 -2.61 -4.13 45.49c0,0 -150.78,47.39 -272.98,26.68 0,0 -38.73,-9.6 -70.94,-5.09 0,0 -52.15,14.19 -114.02,-14.45z"/>
  <path class="fil7" d="M2414.83 5801.41c0,0 -23.72,-138.55 32.62,-253.46l137.84 -1.5c0,0 -20,117.12 151.95,135.68 0,0 151.18,-8.19 141.54,105.26 0,0 -104.96,49.15 -276.77,33.39 0,0 -58.39,-5.04 -75.69,-0.72 0,0 -51.97,4.67 -111.5,-18.66z"/>
  <path class="fil2" d="M2542.35 5546.92c-1.26,2.73 -2.33,5.53 -3.15,8.4 -7.68,26.83 3.21,59.57 15.01,82.94 24.96,49.43 76.21,94.39 134.56,88.31 23.1,-2.39 57.85,-8.4 75,-26.26 3.93,-4.09 8.59,-9.95 10.8,-16.29 -21.29,-2.75 -37.33,-1.88 -37.33,-1.88 -171.96,-18.56 -151.95,-135.68 -151.95,-135.68l-42.94 0.46z"/>
  <path class="fil8" d="M2580.88 5710.23l-1.93 -0.24c-3.95,-1.05 -6.31,-5.14 -5.25,-9.11 7.33,-27.56 20.79,-48.56 39.82,-69.92 3.23,3.48 6.83,6.9 10.8,10.23 -17.42,19.63 -29.69,38.85 -36.26,63.54 -0.89,3.32 -3.9,5.5 -7.18,5.5z"/>
  <path class="fil8" d="M2633.78 5744.01c-4.09,0 -7.41,-3.3 -7.43,-7.39 -0.27,-2.22 -0.6,-4.76 0.58,-7.56l1.54 -3.58c6,-13.92 12.21,-28.33 20.14,-41.84 4.05,-6.86 8.35,-13.54 12.78,-20.06 4.49,1.94 9.22,3.79 14.24,5.51 -4.98,7.22 -9.78,14.56 -14.21,22.07 -7.46,12.7 -13.47,26.68 -19.31,40.19l-1.11 2.59 0.19 2.64c0,4.11 -3.32,7.42 -7.42,7.42z"/>
  <path class="fil8" d="M2692.96 5754.87l-0.33 0c-4.1,-0.19 -7.28,-3.67 -7.1,-7.75l-0.03 -2.36c-0.09,-2.33 -0.19,-5.25 0.8,-8.35l2.67 -8.44c5.29,-16.76 10.73,-34.03 18.08,-50.45 4.85,0.98 9.89,1.87 15.13,2.67 -7.8,16.6 -13.52,34.72 -19.05,52.24l-2.68 8.52 -0.09 3.26 0.03 3.54c-0.18,4.01 -3.46,7.12 -7.42,7.12z"/>
  <path class="fil8" d="M2425.15 5599.91c0,0 -74.16,-330.96 -63.39,-662.43 0,0 5.04,-144.78 -41.87,-268.97 0,0 -275.73,-560.59 -293.2,-973.26l281.29 -47.92c0,0 247.24,292.28 366.52,777.22 0,0 68.56,223.93 18.15,470.92 0,0 -65.16,586.83 -61.46,701.5 0,0 -62.56,36.5 -206.04,2.94z"/>
  <path class="fil9" d="M2537.21 5614.09l0.11 0 0.11 0 0.11 0 0.11 0 0.11 0 0.11 0 0.11 0 0.11 0 0.11 0 0.11 0 0.11 0 0.11 0c1.85,-0.01 3.67,-0.02 5.45,-0.06 22.14,-0.41 39.83,-2.86 53.33,-5.76 23.05,-4.97 33.91,-11.31 33.91,-11.31 -0.11,-3.2 -0.15,-6.75 -0.15,-10.65 0.03,-136.23 61.61,-690.85 61.61,-690.85 13.53,-66.33 18.49,-131 18.5,-190.11 0.03,-161 -36.65,-280.81 -36.65,-280.81 -119.29,-484.94 -366.52,-777.22 -366.52,-777.22l-281.29 47.92c17.47,412.68 293.2,973.26 293.2,973.26 38.62,102.24 42.03,218.43 42.03,256.3 0,8.14 -0.16,12.67 -0.16,12.67 -0.73,22.33 -1.06,44.67 -1.07,66.89 -0.04,307.67 64.46,595.54 64.46,595.54 45.19,10.57 82.35,14.18 112.06,14.18z"/>
  <path class="fil2" d="M1892.13 5863.57l-4.89 -50.02 466.97 -2.61 -4.14 45.49c0,0 -150.77,47.4 -272.97,26.69 0,0 -38.74,-9.61 -70.94,-5.11 0,0 -52.15,14.2 -114.02,-14.44z"/>
  <path class="fil7" d="M1888.32 5831.11c0,0 -23.73,-138.55 32.61,-253.46l137.85 -1.5c0,0 -20.01,117.14 151.95,135.68 0,0 151.19,-8.18 141.54,105.28 0,0 -104.96,49.15 -276.77,33.39 0,0 -58.39,-5.04 -75.69,-0.74 0,0 -51.97,4.68 -111.49,-18.65z"/>
  <path class="fil2" d="M2015.84 5576.63c-1.26,2.73 -2.33,5.54 -3.15,8.41 -7.67,26.82 3.21,59.57 15.01,82.92 24.96,49.46 76.22,94.42 134.56,88.32 23.1,-2.37 57.85,-8.4 75.02,-26.26 3.93,-4.08 8.59,-9.94 10.79,-16.28 -21.29,-2.75 -37.33,-1.89 -37.33,-1.89 -171.96,-18.54 -151.95,-135.68 -151.95,-135.68l-42.94 0.47z"/>
  <path class="fil8" d="M2054.36 5739.95l-1.93 -0.25c-3.96,-1.05 -6.31,-5.14 -5.26,-9.09 7.34,-27.56 20.8,-48.59 39.82,-69.94 3.23,3.48 6.83,6.9 10.8,10.23 -17.42,19.63 -29.7,38.85 -36.26,63.52 -0.89,3.33 -3.89,5.52 -7.17,5.52z"/>
  <path class="fil8" d="M2107.27 5773.72c-4.09,0 -7.41,-3.31 -7.43,-7.4 -0.27,-2.21 -0.59,-4.76 0.59,-7.57l1.54 -3.56c6.01,-13.93 12.21,-28.33 20.14,-41.85 4.05,-6.86 8.35,-13.54 12.78,-20.05 4.49,1.94 9.22,3.78 14.24,5.51 -4.99,7.22 -9.78,14.56 -14.21,22.07 -7.46,12.7 -13.48,26.69 -19.3,40.18l-1.12 2.61 0.2 2.63c0,4.09 -3.33,7.43 -7.43,7.43z"/>
  <path class="fil8" d="M2166.44 5784.58l-0.34 0c-4.09,-0.2 -7.28,-3.66 -7.09,-7.76l-0.03 -2.36c-0.09,-2.33 -0.2,-5.26 0.79,-8.33l2.67 -8.46c5.28,-16.75 10.73,-34.03 18.08,-50.45 4.85,0.98 9.89,1.87 15.13,2.67 -7.8,16.58 -13.52,34.72 -19.04,52.24l-2.69 8.51 -0.1 3.26 0.03 3.56c-0.17,3.99 -3.46,7.11 -7.41,7.11z"/>
  <path class="fil8" d="M1761.54 3629.07c0,0 -60.06,271.65 67.06,693.92 0,0 79.72,234.89 34.47,454.67 0,0 -71.1,405.06 30.17,827.32l178.82 15.09c0,0 95.09,-661.53 147.94,-833.81 0,0 70.93,-269.58 -1.04,-592.53 0,0 -58.88,-394.9 -50.1,-531.42l-407.33 -33.24z"/>
  <path class="fil0" d="M1825.72 2390.07c0,0 92.83,-130.72 129.78,-223.56 0,0 -28.41,-251.03 90.94,-330.6 0,0 277.54,-257.65 269.04,201.78 0,0 23.67,70.1 75.78,94.72 0,0 -50.22,39.78 -67.28,41.68 0,0 10.66,144.54 -146.4,159.07 0,0 -44.11,26.89 -69.93,123.72 0,0 -195.15,-9.62 -281.93,-66.82z"/>
  <path class="fil3" d="M2033.78 2170.16c0,0 -89.41,109.21 -133.55,44.71 0,0 -26.03,-35.09 19.81,-66.78 0,0 -159.57,28.86 -174.29,-20.94 0,0 -10.57,-31.82 25.8,-48.83 0,0 -98.72,-3.78 -96.37,-63.78 0,0 0.94,-52.91 61.41,-62.35 0,0 -137.47,-28.82 -115.26,-112.91 0,0 15.02,-87.13 214.35,-68.21 0,0 -20.87,-38.99 14.96,-78.41 0,0 37.43,-42.15 114.26,-26 0,0 32.78,-58.96 155.68,-24.14 0,0 70.06,26.85 126.26,62.5 0,0 66.26,40.85 55.83,99.68 0,0 -16.28,106.6 -109.68,97.46 0,0 -12.1,67.49 -81.91,64.24 0,0 16.63,102.06 -50.16,81.33 0,0 -54.25,-10.04 -56.46,45.92 0,0 -2.51,45.39 29.29,76.51z"/>
  <path class="fil1" d="M2077.94 2148.54c-9.69,0 -21.08,-8.11 -28.2,-21.09 -9.02,-16.44 -7.77,-34.48 2.8,-40.29 2.24,-1.22 4.71,-1.8 7.3,-1.8 9.68,0 21.06,8.11 28.19,21.08 9.03,16.44 7.78,34.5 -2.8,40.29 -2.24,1.22 -4.7,1.81 -7.3,1.81z"/>
  <path class="fil1" d="M2085.73 2198.76c-23.06,0 -40.83,-13.76 -41.87,-14.6 -3.22,-2.54 -3.76,-7.18 -1.23,-10.4 1.46,-1.86 3.63,-2.83 5.84,-2.83 1.61,0 3.22,0.52 4.58,1.57 0.81,0.64 14.8,11.33 32.54,11.33 7.31,0 15.26,-1.81 23.18,-6.89 1.24,-0.79 2.63,-1.17 3.99,-1.17 2.45,0 4.85,1.2 6.28,3.41 2.2,3.46 1.2,8.06 -2.26,10.28 -10.72,6.85 -21.35,9.29 -31.06,9.29z"/>
  <path class="fil10" d="M1655.09 3684.28c0,0 84.8,-216.15 48.11,-627.92 0,0 -114.1,-516.14 132.8,-653.93 0,0 315.59,-189.28 460.94,478.67 0,0 86.77,480.57 58.46,795.04 0,0 -353.52,102.14 -700.31,8.14z"/>
  <path class="fil0" d="M1942.54 2873.06c0,0 129.7,273.07 275.48,338.83 0,0 323.11,75.46 590.72,-29.74 0,0 62.86,-35.85 42.42,-81.79 0,0 -169.44,-53.89 -505.13,-95.11 0,0 -113.18,-104.39 -192.03,-255.44l-211.45 123.25z"/>
  <path class="fil2" d="M1865.43 2930.7c0,0 -243.88,-474.81 5.88,-586.15 0,0 234.65,-90.74 347.01,399.24 0,0 -114.77,150.9 -352.89,186.92z"/>
  <path class="fil3" d="M2779.67 3194.83c0,-26.39 21.43,-47.82 47.85,-47.82 26.43,0 47.85,21.43 47.85,47.82 0,26.43 -21.42,47.86 -47.85,47.86 -26.42,0 -47.85,-21.43 -47.85,-47.86z"/>
  <path class="fil0" d="M2785.69 3082.83c39.71,3.01 82.5,-0.63 121.28,8.33 23.97,5.53 46.71,12.97 64.28,30.97 34.26,35.08 43.35,83.29 19.98,126.78 -8.17,15.18 -19.69,29.14 -36.87,34.37 -6.51,1.97 -13.04,-2.89 -13.04,-2.89 0,0 -15.88,16.57 -32.47,17.04 -16.59,0.46 -18.11,-15.31 -18.11,-15.31 0,0 -27.43,-0.59 -31.98,-5.07 -11.33,-11.08 -3.6,-31.99 -0.89,-43.96 4.06,-18.09 6.57,-43.59 -3.63,-60.07 -14.74,-23.82 -64.74,-49.18 -54.93,-82.91l-13.61 -7.3z"/>
  <path class="fil1" d="M2898.7 3274.44c-1.9,0 -3.8,-0.72 -5.26,-2.18 -2.89,-2.9 -2.89,-7.61 0.02,-10.5 7.08,-7.08 13.24,-16.33 18.8,-28.28 2.42,-5.23 3.7,-11.15 5.04,-17.39 0.72,-3.38 1.46,-6.75 2.37,-10.06 0.91,-3.32 3.89,-5.46 7.17,-5.46 0.65,0 1.3,0.08 1.96,0.25 3.96,1.09 6.28,5.19 5.21,9.14 -0.85,3.04 -1.52,6.17 -2.18,9.26 -1.46,6.76 -2.97,13.75 -6.08,20.5 -6.33,13.58 -13.46,24.21 -21.79,32.53 -1.44,1.46 -3.35,2.18 -5.25,2.18z"/>
  <path class="fil1" d="M2948.96 3265.23c-1.7,0 -3.39,-0.57 -4.79,-1.75 -3.13,-2.64 -3.53,-7.33 -0.87,-10.46 12.51,-14.82 18.28,-30.29 19.93,-53.39 0.28,-3.93 3.51,-6.92 7.44,-6.92 0.17,0 0.33,0.02 0.5,0.02 4.09,0.29 7.17,3.85 6.87,7.94 -1.86,26.19 -8.86,44.72 -23.4,61.92 -1.46,1.75 -3.56,2.64 -5.68,2.64z"/>
 </g>
</svg>
