<svg width="20" height="20" viewBox="0 0 20 20" fill="none" xmlns="http://www.w3.org/2000/svg">
<g clip-path="url(#clip0)">
<path d="M18.1581 4.59824L16.9343 16.8868H2.2357L1.24976 4.83606L9.585 9.50284L18.1581 4.59824Z" fill="#F2F2F2"/>
<path d="M17.7429 2.28338L9.58496 9.94674L1.427 2.28338H9.58496H17.7429Z" fill="#F2F2F2"/>
<path d="M2.2357 5.82184V16.8867H0.903798C0.404817 16.8867 0 16.4819 0 15.9829V4.19217L1.46021 4.23197L2.2357 5.82184Z" fill="#F14336"/>
<path d="M19.17 4.19219V15.9829C19.17 16.4819 18.7652 16.8867 18.2657 16.8867H16.9343V5.82186L17.6716 4.0799L19.17 4.19219Z" fill="#D32E2A"/>
<path d="M19.17 3.18718V4.19229L16.9343 5.82197L9.585 11.1786L2.2357 5.82197L0 4.19229V3.18718C0 2.6882 0.404817 2.28338 0.903798 2.28338H1.42704L9.585 8.22941L17.743 2.28338H18.2657C18.7652 2.28338 19.17 2.68816 19.17 3.18718Z" fill="#F14336"/>
<path d="M2.2357 5.82184L0 5.47521V4.19217L2.2357 5.82184Z" fill="#D32E2A"/>
</g>
<defs>
<clipPath id="clip0">
<rect width="19.17" height="19.17" fill="white"/>
</clipPath>
</defs>
</svg>
