<svg width="139" height="39" viewBox="0 0 139 39" fill="none" xmlns="http://www.w3.org/2000/svg">
<g clip-path="url(#clip0)">
<path fill-rule="evenodd" clip-rule="evenodd" d="M67.5087 16.4521C65.1505 14.3729 61.2392 13.4094 57.5997 15.0898C56.5914 15.5554 56.3358 15.6302 55.6281 16.3499C55.2192 16.7655 55.2147 16.7538 54.8166 17.1367C51.4451 20.3798 51.6146 27.6511 57.834 30.3597C61.3091 31.8732 65.4599 30.8865 67.4532 28.9046L67.521 30.7323L70.3081 30.6849L70.2771 8.63972L67.5092 8.54141L67.509 16.4523L67.5087 16.4521ZM59.9523 17.0327C58.2587 17.4255 57.6709 18.1871 57.6027 18.2435C57.5621 18.277 57.5023 18.3286 57.4623 18.3627C55.7187 19.8474 54.9459 21.8817 55.6227 24.2078C56.4057 26.8989 59.3144 29.1982 63.048 28.2856C70.4947 26.4652 67.9853 15.1701 59.9523 17.0329V17.0327Z" fill="#313131"/>
<path fill-rule="evenodd" clip-rule="evenodd" d="M99.3626 29.0112L99.628 30.0512C99.6542 30.1297 99.684 30.2036 99.7103 30.2759L102.413 30.7275L102.377 14.6416L99.9058 14.641C99.5048 15.2606 99.5572 15.5784 99.5714 16.4021C98.3447 15.5908 97.2883 14.8095 95.3969 14.4323C85.3409 12.4262 80.2553 25.5261 89.5004 30.1957C91.1016 31.0044 93.0029 31.3076 94.8799 31.0123C97.1114 30.6613 97.9839 29.9087 99.363 29.0114L99.3626 29.0112ZM91.984 17.0314C87.0495 18.1027 85.6877 25.064 90.1343 27.4745C95.8408 30.5677 100.544 25.6922 99.3638 21.2424C98.4761 17.8968 95.049 16.3658 91.984 17.0312V17.0314Z" fill="#313131"/>
<path fill-rule="evenodd" clip-rule="evenodd" d="M12.9979 6.18945C4.393 8.54061 6.08271 15.8886 6.07584 22.3233C6.07126 26.756 6.39479 28.4039 9.02783 30.7949C14.3299 35.6096 21.7396 31.4371 22.2178 30.2217C23.0312 28.1542 20.8125 27.9373 19.1015 28.8602C15.617 30.7398 12.6823 30.5283 10.4311 27.8991C8.42053 25.5507 9.10132 20.9037 9.09945 17.6701C9.09674 13.251 9.37531 10.956 12.6979 9.34058C16.0332 7.71884 19.0516 10.049 21.4995 11.4234C24.052 12.8564 27.0094 14.1164 28.7318 15.9078C31.3026 18.5821 29.9682 22.0196 27.9246 23.8314C26.8972 24.7422 24.8702 25.214 24.5702 26.3297C23.53 30.1987 32.0885 27.0264 32.9923 21.1517C33.6014 17.1928 32.2034 14.7251 29.8758 12.749L22.3929 8.49502C19.7869 7.00072 16.9192 5.11814 12.9977 6.18965L12.9979 6.18945Z" fill="#FC7B14"/>
<path fill-rule="evenodd" clip-rule="evenodd" d="M0 21.7578V26.3972C1.25271 29.1232 1.00017 32.9968 7.15544 36.714C15.9444 42.0219 22.8627 36.8821 29.0958 33.4896C34.4527 30.5739 39.008 27.3342 39.2074 20.2619C39.4177 12.8047 35.2128 8.35725 30.0847 6.05644C27.8727 5.06401 26.7001 7.15175 28.1893 8.40245C29.8103 9.76394 35.1362 11.0489 36.0716 17.9311C36.7632 23.0198 34.3429 26.9833 30.2665 29.4128C28.9626 30.19 27.8138 30.7489 26.4753 31.4892C21.325 34.3377 16.1632 38.2254 9.05084 34.3708C6.94496 33.2295 4.59569 30.7789 3.67672 28.1425C2.6676 25.2474 4.08353 18.6112 0.000208195 21.7576L0 21.7578Z" fill="#FC7B14"/>
<path fill-rule="evenodd" clip-rule="evenodd" d="M139.003 30.7243V21.4934C137.705 18.2243 137.067 15.6918 132.477 14.534C129.742 13.8441 126.531 14.4641 124.442 16.2044C124.26 16.3552 123.809 16.8035 123.629 16.9857C123.526 17.0892 123.329 17.2907 123.23 17.3974L122.457 17.6905C122.42 17.6497 122.245 17.4596 122.193 17.4051C120.737 15.8603 119.505 14.7856 116.671 14.3416C113.582 13.8578 110.934 15.0151 109.202 16.443C109.208 16.1381 109.262 15.6242 109.164 15.3429C108.874 14.5083 109.417 14.6121 106.458 14.7061L106.472 30.611L109.236 30.7481C109.13 25.5459 107.596 17.0729 115.11 16.8989C118.155 16.8283 120.326 18.6251 121.061 20.9972C121.65 22.8969 121.444 28.3635 121.382 30.6145L124.135 30.7485C124.137 25.6645 122.434 17.0626 130.042 16.8989C133.074 16.8337 135.255 18.6917 136 21.0099C136.475 22.4902 136.335 28.8461 136.224 30.6845L139.003 30.7245L139.003 30.7243Z" fill="#313131"/>
<path fill-rule="evenodd" clip-rule="evenodd" d="M15.4422 15.0193C15.9892 14.9517 23.0161 18.8289 23.5422 19.4784C23.0238 20.126 15.9981 24.0033 15.4439 23.9365C14.9524 23.1252 15.295 23.0779 15.1062 22.1233C14.7833 20.4918 12.1319 20.0324 12.1115 23.3484C12.0664 30.6836 19.3873 25.5275 22.4122 23.7625C24.1206 22.7657 27.0383 21.8627 27.0355 19.4784C27.033 17.0656 24.2312 16.266 22.5712 15.3002C19.5482 13.5414 12.2419 8.37692 12.1174 15.3404C12.0487 19.1793 14.7244 18.194 15.0656 17.0434C15.1882 16.6301 15.1079 16.514 15.1589 16.1261L15.3585 15.2221C15.3744 15.1701 15.4041 15.0819 15.4422 15.0189V15.0193Z" fill="#FC7B14"/>
<path fill-rule="evenodd" clip-rule="evenodd" d="M0 12.5618V17.1989C4.02773 20.3754 2.72048 13.951 3.49121 11.4047C5.16552 5.87304 10.9958 2.2024 16.9633 3.10346C20.5307 3.6422 22.7263 6.23199 25.0845 5.40824C25.7114 3.2327 24.848 3.07353 23.2279 2.26068C18.8168 0.0474763 14.9815 -0.840104 9.89486 0.973113C6.23397 2.27812 2.87204 5.18367 1.37554 8.39802C0.77844 9.68044 0.576283 11.3436 0.000208195 12.5618H0Z" fill="#FC7B14"/>
<path fill-rule="evenodd" clip-rule="evenodd" d="M77.3743 16.3369L76.8313 14.6363L74.3794 14.67L74.4092 30.6746L77.2285 30.7358C77.012 23.0869 76.0229 18.6207 82.0514 17.0247C83.5302 16.6332 80.6558 17.4776 82.5173 16.9016L83.2327 16.6338L83.2608 14.1889C80.6887 14.4702 78.775 15.0553 77.3741 16.3365L77.3743 16.3369Z" fill="#313131"/>
<path fill-rule="evenodd" clip-rule="evenodd" d="M46.2139 30.5962L48.9962 30.7522C48.8815 27.875 49.3378 16.348 48.7701 14.6975L46.3096 14.7098L46.2141 30.596L46.2139 30.5962Z" fill="#313131"/>
<path fill-rule="evenodd" clip-rule="evenodd" d="M46.5287 12.05C47.9609 12.1873 48.2796 11.9508 49.1805 11.5267C49.453 10.2881 49.4008 9.99472 49.0624 8.96839C48.2297 8.74323 46.9355 8.31767 46.1737 9.16185C45.0749 10.3796 46.0894 11.073 46.5287 12.05Z" fill="#313131"/>
</g>
<defs>
<clipPath id="clip0">
<rect width="139" height="39" fill="white"/>
</clipPath>
</defs>
</svg>
