<svg width="447" height="456" viewBox="0 0 447 456" fill="none" xmlns="http://www.w3.org/2000/svg">
<path d="M230.148 19.9147C170.217 16.63 114.615 37.859 73.0778 74.8591L49.3872 376.026C86.8371 421.737 142.614 452.179 206.269 455.667C326.599 462.261 429.492 370.06 436.085 249.731C442.679 129.402 350.478 26.5089 230.148 19.9147Z" fill="#F5585C"/>
<path d="M292.341 73.7787C292.182 73.7769 292.027 73.7671 291.868 73.7671H74.3275C31.7708 111.102 3.67513 164.858 0.332614 225.851C-2.80595 283.123 16.4476 336.434 50.4499 377.302H215.394C225.444 377.302 235 381.667 241.581 389.263L284.75 439.096C287.207 441.933 291.867 440.195 291.867 436.442V395.407C291.867 395.023 291.878 394.639 291.897 394.258C292.393 384.936 299.792 377.354 309.063 376.267C384.296 367.448 443.172 303.036 443.172 225.535V225.534C443.173 142.375 375.386 74.2881 292.341 73.7787Z" fill="#FAD964"/>
<path d="M232.218 225.534C232.218 158.187 276.678 100.732 337.695 81.0437C323.369 76.4213 308.133 73.875 292.342 73.7779C292.183 73.777 292.027 73.7664 291.869 73.7664H74.3275C31.7708 111.102 3.67513 164.858 0.332614 225.851C-2.80595 283.122 16.4476 336.434 50.4499 377.302H215.394C225.444 377.302 235 381.667 241.581 389.263L284.75 439.096C287.207 441.933 291.867 440.194 291.867 436.442V395.408C291.867 395.023 291.878 394.639 291.897 394.258C292.393 384.936 299.792 377.354 309.063 376.267C318.921 375.111 328.494 372.992 337.694 370.024C276.678 350.334 232.218 292.881 232.218 225.534Z" fill="#FAB941"/>
<path d="M372.732 173.728C366.68 165.701 367.242 154.753 373.493 147.4C364.703 151.389 354.02 148.917 347.967 140.888C342.477 133.607 342.426 123.921 347.128 116.696C338.887 119.231 329.587 116.517 324.095 109.235C317.086 99.9382 318.941 86.7204 328.237 79.7121L328.468 79.5375C319.182 86.5396 305.977 84.6871 298.975 75.3997L298.95 75.3649C291.948 66.0784 293.8 52.8758 303.085 45.8737L278.992 64.038L272.465 68.9587C268.958 71.6029 263.889 69.7629 262.895 65.4835C258.165 47.1321 252.14 29.1397 244.866 11.6407C239.358 0.259416 224.996 -3.52752 214.592 3.65715C207.349 8.6589 204.055 17.6916 206.38 26.1819C210.195 40.9147 214.679 52.4278 216.578 64.9633C217.323 69.8751 216.707 74.8893 214.78 79.468C211.302 87.7304 207.021 100.078 204.965 114.499C204.465 118.006 203.142 121.349 201.032 124.193C195.673 131.413 190.765 136.901 190.765 136.901L190.671 136.972L175.996 148.036L259.093 258.251L282.806 240.017C285.529 237.918 288.83 236.741 292.262 236.54C315.432 235.18 337.658 226.874 356.044 212.706L402.056 178.015C392.77 184.848 379.691 182.959 372.732 173.728Z" fill="#EFC1A8"/>
<path d="M267.008 230.848L201.83 144.401C198.034 139.366 197.04 133.103 198.554 127.45C194.252 132.996 190.764 136.9 190.764 136.9L190.669 136.971L175.995 148.035L259.092 258.25C284.089 239.136 282.884 239.716 285.154 238.513C278.402 239.347 271.401 236.676 267.008 230.848Z" fill="#E5AF98"/>
<path d="M437.818 151.056L399.944 179.613C390.647 186.622 377.43 184.767 370.42 175.471C363.411 166.175 365.265 152.957 374.562 145.948L412.437 117.392C421.733 110.382 434.951 112.238 441.959 121.533C448.969 130.83 447.115 144.048 437.818 151.056Z" fill="#F9D6BF"/>
<path d="M415.535 116.344L375.178 146.772C365.882 153.781 352.664 151.927 345.655 142.63C338.646 133.334 340.5 120.116 349.796 113.107L390.153 82.6796C399.449 75.6704 412.667 77.5256 419.675 86.821C426.686 96.1174 424.831 109.335 415.535 116.344Z" fill="#F9D6BF"/>
<path d="M394.146 82.8186L351.307 115.118C342.01 122.127 328.792 120.273 321.783 110.977C314.774 101.68 316.628 88.4625 325.925 81.4533L368.765 49.1539C378.061 42.1447 391.279 43.999 398.287 53.2953C405.297 62.5925 403.443 75.8103 394.146 82.8186Z" fill="#F9D6BF"/>
<path d="M371.352 47.2042L326.157 81.2786C316.871 88.2807 303.666 86.4282 296.664 77.1417L296.638 77.1069C289.637 67.8204 291.489 54.616 300.775 47.6139L345.97 13.5395C355.257 6.53736 368.461 8.38986 375.462 17.6764L375.488 17.7111C382.49 26.9977 380.639 40.2021 371.352 47.2042Z" fill="#F9D6BF"/>
<path d="M224.794 17.4271L219.269 1.24353C217.655 1.83223 216.083 2.62845 214.593 3.65712C207.349 8.65887 204.056 17.6907 206.379 26.181C207.471 30.3981 208.618 34.3507 209.744 38.1395L214.449 36.8685C222.868 34.5948 227.611 25.6796 224.794 17.4271Z" fill="#E2E9F2"/>
<path d="M256.222 274.677C250.025 279.349 241.133 278.101 236.461 271.904L157.115 166.666C152.443 160.469 153.691 151.577 159.888 146.904C166.085 142.232 174.977 143.48 179.649 149.677L258.995 254.916C263.666 261.113 262.419 270.005 256.222 274.677Z" fill="#E2E9F2"/>
<path d="M197.745 197.115C202.759 193.334 209.381 193.106 214.561 195.981L179.65 149.677C174.978 143.48 166.086 142.233 159.889 146.905C153.692 151.578 152.445 160.47 157.116 166.667L192.028 212.971C190.689 207.201 192.731 200.895 197.745 197.115Z" fill="#C7D6E5"/>
<path d="M287.059 87.9129C284.862 77.5674 281.262 69.3816 278.62 64.3193L272.465 68.9595C269.667 71.0694 265.882 70.3186 263.958 67.7589C267.635 73.7671 286.775 108.667 262.129 147.466C259.986 150.84 260.984 155.313 264.358 157.456C267.744 159.606 272.213 158.59 274.348 155.228C291.076 128.891 290.494 104.085 287.059 87.9129Z" fill="#E5AF98"/>
<path d="M147.898 154.44C144.955 150.537 139.406 149.759 135.503 152.701L0.621582 254.396C4.09858 300.72 22.172 343.313 50.4503 377.302H137.056L243.939 296.526C247.843 293.583 248.621 288.033 245.678 284.13L147.898 154.44Z" fill="#6393E4"/>
<path d="M179.468 212.908C183.198 210.096 188.193 210.152 191.822 212.698L147.898 154.439C144.955 150.536 139.406 149.758 135.503 152.701L0.621582 254.396C2.68961 281.954 9.92505 308.191 21.4008 332.083L179.468 212.908Z" fill="#5D80D3"/>
</svg>
