<svg width="32" height="30" viewBox="0 0 32 30" fill="none" xmlns="http://www.w3.org/2000/svg">
<path d="M30.4 26.1999H1.6C0.71681 26.1999 0 26.9167 0 27.7999C0 28.6831 0.71681 29.3999 1.6 29.3999H30.4C31.2832 29.3999 32 28.6831 32 27.7998C32 26.9167 31.2832 26.1999 30.4 26.1999ZM1.6 3.79985H30.4C31.2832 3.79985 32 3.0831 32 2.19985C32 1.31661 31.2832 0.599854 30.4 0.599854H1.6C0.71681 0.599906 0 1.31666 0 2.19991C0 3.0831 0.71681 3.79985 1.6 3.79985ZM30.4 13.3999H1.6C0.71681 13.3999 0 14.1167 0 14.9999C0 15.8831 0.71681 16.5999 1.6 16.5999H30.4C31.2832 16.5999 32 15.8831 32 14.9999C32 14.1167 31.2832 13.3999 30.4 13.3999Z" fill="white"/>
</svg>
