<svg width="36" height="40" viewBox="0 0 36 40" fill="none" xmlns="http://www.w3.org/2000/svg">
<path d="M26.4903 23.4004C24.9863 23.4004 23.516 23.8464 22.2654 24.682C21.0149 25.5176 20.0402 26.7053 19.4646 28.0948C18.889 29.4843 18.7384 31.0134 19.0319 32.4885C19.3253 33.9636 20.0496 35.3186 21.1131 36.3822C22.1766 37.4457 23.5316 38.1699 25.0067 38.4634C26.4819 38.7568 28.0109 38.6062 29.4004 38.0306C30.79 37.455 31.9776 36.4804 32.8132 35.2298C33.6488 33.9792 34.0948 32.509 34.0948 31.0049C34.0926 28.9888 33.2906 27.0559 31.865 25.6302C30.4394 24.2046 28.5064 23.4027 26.4903 23.4004ZM31.5133 35.348L30.9874 34.8248C30.8975 34.7351 30.7757 34.6849 30.6487 34.6851C30.5217 34.6853 30.4 34.7359 30.3104 34.8258C30.2207 34.9157 30.1705 35.0376 30.1707 35.1645C30.1709 35.2915 30.2215 35.4132 30.3114 35.5029L30.8496 36.0288C29.7685 36.9618 28.4173 37.5244 26.9936 37.6343V36.8883C26.9936 36.7615 26.9432 36.6399 26.8535 36.5502C26.7639 36.4606 26.6423 36.4102 26.5155 36.4102C26.3887 36.4102 26.2671 36.4606 26.1774 36.5502C26.0877 36.6399 26.0374 36.7615 26.0374 36.8883V37.6343C24.6025 37.5399 23.2385 36.9758 22.1561 36.0291L22.6754 35.5032C22.7651 35.4129 22.8152 35.2907 22.8148 35.1635C22.8143 35.0362 22.7634 34.9144 22.6731 34.8247C22.5828 34.735 22.4606 34.6849 22.3334 34.6853C22.2061 34.6858 22.0843 34.7367 21.9946 34.827L21.4681 35.3476C20.5209 34.2683 19.9561 32.9068 19.861 31.474H20.6081C20.7349 31.474 20.8565 31.4236 20.9462 31.334C21.0359 31.2443 21.0862 31.1227 21.0862 30.9959C21.0862 30.8691 21.0359 30.7475 20.9462 30.6579C20.8565 30.5682 20.7349 30.5178 20.6081 30.5178H19.8609C19.9705 29.0915 20.533 27.7375 21.4662 26.6533L21.993 27.1827C22.0824 27.2724 22.2037 27.3228 22.3303 27.323C22.4569 27.3232 22.5784 27.2731 22.668 27.1838C22.7577 27.0944 22.8082 26.9731 22.8084 26.8465C22.8086 26.7199 22.7585 26.5984 22.6691 26.5088L22.1548 25.9821C23.2374 25.0347 24.6019 24.4702 26.0374 24.3756V25.1241C26.0374 25.2509 26.0877 25.3725 26.1774 25.4621C26.2671 25.5518 26.3887 25.6021 26.5155 25.6021C26.6423 25.6021 26.7639 25.5518 26.8535 25.4621C26.9432 25.3725 26.9936 25.2509 26.9936 25.1241V24.3756C28.4179 24.4855 29.7696 25.0484 30.851 25.9819L30.3179 26.5088C30.2278 26.5981 30.1768 26.7194 30.1762 26.8462C30.1756 26.973 30.2254 27.0949 30.3147 27.1849C30.3588 27.2293 30.4113 27.2645 30.4691 27.2885C30.5269 27.3126 30.5889 27.3249 30.6515 27.3249C30.7141 27.3249 30.7761 27.3126 30.8339 27.2885C30.8917 27.2645 30.9442 27.2293 30.9884 27.1849L31.5148 26.653C32.448 27.7373 33.0103 29.0914 33.1197 30.5178H32.3724C32.2456 30.5178 32.124 30.5682 32.0344 30.6579C31.9447 30.7475 31.8944 30.8691 31.8944 30.9959C31.8944 31.1227 31.9447 31.2443 32.0344 31.334C32.124 31.4236 32.2456 31.474 32.3724 31.474H33.1195C33.0249 32.9069 32.4603 34.2685 31.5133 35.348Z" fill="black"/>
<path d="M26.9935 29.6083V27.3773C26.9935 27.2505 26.9431 27.1289 26.8535 27.0392C26.7638 26.9495 26.6422 26.8992 26.5154 26.8992C26.3886 26.8992 26.267 26.9495 26.1774 27.0392C26.0877 27.1289 26.0373 27.2505 26.0373 27.3773V29.6083C25.7387 29.6976 25.4777 29.8828 25.2948 30.1352C25.1119 30.3876 25.0172 30.6933 25.0254 31.0049C25.0283 31.3953 25.1854 31.7687 25.4624 32.0438C25.7395 32.3188 26.1141 32.4732 26.5045 32.4732C26.8949 32.4732 27.2695 32.3188 27.5465 32.0438C27.8236 31.7687 27.9807 31.3953 27.9836 31.0049C27.9805 30.699 27.884 30.4013 27.7071 30.1517C27.5302 29.9021 27.2812 29.7125 26.9935 29.6083ZM26.4903 31.5263C26.3624 31.5267 26.2389 31.4802 26.1432 31.3955C26.0474 31.3108 25.9862 31.1938 25.9711 31.0669C25.9559 30.94 25.988 30.8119 26.0611 30.7071C26.1342 30.6023 26.2434 30.528 26.3677 30.4984C26.4479 30.5203 26.5325 30.5203 26.6127 30.4984C26.7371 30.528 26.8462 30.6023 26.9193 30.7071C26.9924 30.8119 27.0245 30.94 27.0094 31.0669C26.9942 31.1938 26.933 31.3107 26.8373 31.3954C26.7416 31.4801 26.6181 31.5267 26.4903 31.5263Z" fill="black"/>
<path d="M27.5513 22.0717V21.3511C27.853 21.344 28.1396 21.2179 28.3486 21.0002C28.5576 20.7826 28.672 20.4911 28.6669 20.1894V20.1814C28.6671 20.0305 28.6373 19.8811 28.5791 19.7418C28.521 19.6025 28.4356 19.4763 28.3281 19.3703C28.2206 19.2644 28.0931 19.181 27.9529 19.1249C27.8128 19.0689 27.6629 19.0413 27.512 19.0438H25.4685C25.2479 19.0438 25.0313 19.1038 24.8422 19.2174V3.74502H25.1856C25.6822 3.74502 26.1585 3.54774 26.5096 3.19657C26.8608 2.84541 27.0581 2.36913 27.0581 1.87251C27.0581 1.37589 26.8608 0.899609 26.5096 0.548446C26.1585 0.197282 25.6822 0 25.1856 0H1.87251C1.37589 0 0.899609 0.197282 0.548446 0.548446C0.197282 0.899609 0 1.37589 0 1.87251C0 2.36913 0.197282 2.84541 0.548446 3.19657C0.899609 3.54774 1.37589 3.74502 1.87251 3.74502H2.21267V26.6932H1.87251C1.37589 26.6932 0.899609 26.8905 0.548446 27.2417C0.197282 27.5928 0 28.0691 0 28.5657C0 29.0624 0.197282 29.5386 0.548446 29.8898C0.899609 30.241 1.37589 30.4382 1.87251 30.4382H17.4945C17.4829 30.6257 17.4764 30.8147 17.4764 31.005C17.4764 35.9649 21.5209 40 26.4804 40C31.4399 40 35.4844 35.9649 35.4844 31.005C35.483 28.8036 34.675 26.6789 33.2132 25.0328C31.7514 23.3867 29.7372 22.3333 27.5513 22.0717ZM25.4398 20H27.5115C27.5643 20 27.615 20.021 27.6523 20.0583C27.6897 20.0957 27.7107 20.1464 27.7107 20.1992C27.7107 20.252 27.6897 20.3027 27.6523 20.3401C27.615 20.3774 27.5643 20.3984 27.5115 20.3984H25.4398C25.3869 20.3984 25.3363 20.3774 25.2989 20.3401C25.2615 20.3027 25.2406 20.252 25.2406 20.1992C25.2406 20.1464 25.2615 20.0957 25.2989 20.0583C25.3363 20.021 25.3869 20 25.4398 20ZM26.5951 21.3546V22.0112C26.5155 22.0112 26.5075 22.01 26.4756 22.01C26.4437 22.01 26.4358 22.0109 26.3561 22.0112V21.3546H26.5951ZM25.3999 21.3513V22.0717C25.2121 22.0937 25.0263 22.1221 24.8422 22.1555V21.1683C25.008 21.2788 25.2008 21.342 25.3999 21.3513ZM1.87251 2.78884C1.62948 2.78884 1.39641 2.6923 1.22456 2.52046C1.05272 2.34861 0.956175 2.11554 0.956175 1.87251C0.956175 1.62948 1.05272 1.39641 1.22456 1.22456C1.39641 1.05272 1.62948 0.956175 1.87251 0.956175H25.1856C25.4286 0.956175 25.6617 1.05272 25.8335 1.22456C26.0054 1.39641 26.1019 1.62948 26.1019 1.87251C26.1019 2.11554 26.0054 2.34861 25.8335 2.52046C25.6617 2.6923 25.4286 2.78884 25.1856 2.78884H1.87251ZM18.6534 19.9943C17.622 18.9847 16.3154 18.302 14.8975 18.032C13.4796 17.7619 12.0136 17.9165 10.6832 18.4764C9.35287 19.0362 8.21743 19.9764 7.41929 21.179C6.62115 22.3816 6.19585 23.7931 6.19673 25.2365V26.6932H5.55928V23.7179C5.5591 21.6226 6.38428 19.6115 7.85612 18.1201C9.32797 16.6288 11.328 15.7772 13.4232 15.7498C15.5183 15.7224 17.54 16.5214 19.0503 17.9737C20.5607 19.426 21.4382 21.4149 21.4928 23.5095C21.2417 23.6766 20.9991 23.8563 20.766 24.0477C20.5144 22.5051 19.7738 21.0842 18.6534 19.9943ZM19.8947 24.8661C19.3803 25.4176 18.9371 26.0315 18.5753 26.6932H7.15291V25.2365C7.15356 23.5779 7.80046 21.9848 8.95632 20.7953C10.1122 19.6059 11.6861 18.9136 13.3439 18.8654C15.0018 18.8172 16.6133 19.4169 17.8363 20.5372C19.0593 21.6575 19.7977 23.2103 19.8947 24.8661ZM10.7751 15.2232C8.98244 15.8081 7.42037 16.9444 6.31195 18.4699C5.20354 19.9955 4.60546 21.8322 4.60311 23.7179V26.6932H3.16884V3.74502H4.60311V6.74104C4.60546 8.62522 5.20374 10.4604 6.31234 11.9839C7.42095 13.5075 8.98305 14.6413 10.7751 15.2232ZM5.61641 7.72908C5.57619 7.4013 5.55711 7.07127 5.55928 6.74104V3.74502H21.4955V6.74104C21.4988 7.0712 21.4808 7.40123 21.4417 7.72908H5.61641ZM21.2607 8.68526C20.8187 10.3953 19.8212 11.9101 18.4249 12.9918C17.0286 14.0735 15.3126 14.6607 13.5463 14.6614H13.5115C11.7452 14.6607 10.0292 14.0735 8.6329 12.9918C7.2366 11.9101 6.23913 10.3953 5.79713 8.68526H21.2607ZM16.2797 15.2232C18.0718 14.6413 19.6339 13.5075 20.7425 11.9839C21.8511 10.4604 22.4494 8.62522 22.4517 6.74104V3.74502H23.886V22.3848C23.3811 22.5356 22.8906 22.731 22.4202 22.9686C22.2701 21.2173 21.6077 19.549 20.5157 18.1717C19.4238 16.7943 17.9505 15.7689 16.2797 15.2232ZM17.6053 29.4821H1.87251C1.62948 29.4821 1.39641 29.3855 1.22456 29.2137C1.05272 29.0418 0.956175 28.8088 0.956175 28.5657C0.956175 28.3227 1.05272 28.0896 1.22456 27.9178C1.39641 27.7459 1.62948 27.6494 1.87251 27.6494H18.1237C17.8861 28.2401 17.7123 28.8545 17.6053 29.4821ZM26.4903 39.0438C24.9003 39.0438 23.3461 38.5724 22.0241 37.6891C20.7022 36.8058 19.6718 35.5503 19.0633 34.0814C18.4549 32.6125 18.2957 30.9962 18.6058 29.4368C18.916 27.8774 19.6816 26.445 20.8059 25.3208C21.9301 24.1965 23.3625 23.4309 24.9219 23.1207C26.4813 22.8105 28.0976 22.9697 29.5665 23.5781C31.0354 24.1866 32.2909 25.2169 33.1742 26.5389C34.0575 27.8609 34.529 29.4151 34.529 31.005C34.5266 33.1363 33.6789 35.1796 32.1719 36.6867C30.6649 38.1937 28.6216 39.0414 26.4903 39.0438Z" fill="black"/>
</svg>
