<svg width="40" height="40" viewBox="0 0 40 40" fill="none" xmlns="http://www.w3.org/2000/svg">
<g clip-path="url(#clip0)">
<path d="M39.0659 19.6918L35.2984 18.5562L35.645 10.5135C35.6886 9.5029 34.9017 8.6455 33.8914 8.60185L29.2155 8.40028C28.9002 8.38667 28.6335 8.63135 28.6199 8.9467C28.6063 9.26207 28.851 9.52862 29.1663 9.54239L33.8421 9.74395C34.2231 9.76063 34.5193 10.0835 34.503 10.4643L34.4645 11.3552L3.56516 10.0233L3.60358 9.1324C3.61153 8.94794 3.69086 8.77757 3.82689 8.65276C3.96299 8.52798 4.13954 8.46362 4.324 8.47156L30.4216 9.62204C30.737 9.63566 31.0037 9.39097 31.0173 9.07562C31.0309 8.76025 30.7863 8.49374 30.4709 8.47993L4.3732 7.32944C3.36262 7.28586 2.50505 8.07255 2.4615 9.08305L1.72477 26.1751C1.68796 27.0295 2.24452 27.7746 3.02823 28.0107C3.1714 28.0539 3.32231 28.08 3.47841 28.0867L3.75743 28.0988L3.55445 28.7722C3.26255 29.7407 3.81295 30.766 4.7814 31.0579L33.07 39.5844C34.0384 39.8763 35.0638 39.3259 35.3557 38.3575L40.2928 21.9775C40.5847 21.0091 40.0343 19.9837 39.0659 19.6918ZM4.09795 26.9693L3.52773 26.9447C3.14696 26.9284 2.85051 26.6052 2.86688 26.2244L3.31782 15.7622L7.42256 15.9392L4.09795 26.9693ZM8.49166 12.3922L7.763 14.8097L3.36707 14.6202L3.51601 11.1653L9.20985 11.4107C8.8772 11.6388 8.61684 11.9769 8.49166 12.3922ZM34.1689 18.2157L29.8187 16.9045L34.2172 17.0941L34.1689 18.2157ZM34.4154 12.4972L34.2665 15.9521L25.3893 15.5695L11.989 11.5305L34.4154 12.4972ZM33.3999 38.4899L5.11136 29.9635C4.74641 29.8535 4.53893 29.4671 4.64893 29.1021L5.06418 27.7244L9.58605 12.7221C9.69606 12.3572 10.0824 12.1498 10.4475 12.2598L38.736 20.7863C39.1009 20.8963 39.3083 21.2827 39.1983 21.6476L34.2612 38.0276C34.1512 38.3925 33.7648 38.5999 33.3999 38.4899Z" fill="black"/>
<path d="M20.256 28.7179L8.33215 25.1239C8.02996 25.0328 7.71107 25.204 7.61997 25.5062C7.52886 25.8085 7.70007 26.1273 8.00226 26.2184L19.9261 29.8124C20.2283 29.9035 20.5472 29.7324 20.6383 29.4301C20.7294 29.1279 20.5583 28.809 20.256 28.7179Z" fill="black"/>
<path d="M32.2759 21.8436C31.4899 21.6067 30.6861 21.6411 29.964 21.8913C29.4865 21.2646 28.826 20.8037 28.0612 20.5732C26.0746 19.9744 23.9714 21.1035 23.3726 23.09C22.774 25.0765 23.903 27.1798 25.8895 27.7786C26.6543 28.0091 27.4593 27.99 28.2037 27.7315C28.6673 28.339 29.3182 28.812 30.1042 29.0489C32.0907 29.6477 34.1939 28.5186 34.7927 26.5322C35.3914 24.5456 34.2624 22.4423 32.2759 21.8436ZM27.5403 24.5325C27.5367 24.5468 27.5335 24.561 27.53 24.5753C27.5188 24.622 27.5086 24.6687 27.4992 24.7156C27.497 24.7265 27.4948 24.7375 27.4927 24.7484C27.3665 25.4085 27.4188 26.0801 27.6448 26.7084C27.18 26.8321 26.6887 26.8255 26.2194 26.684C24.8364 26.2671 24.0503 24.8028 24.4672 23.4199C24.8841 22.037 26.3484 21.2509 27.7314 21.6677C28.2007 21.8092 28.6138 22.0751 28.9328 22.4351C28.3973 22.8339 27.9826 23.3647 27.723 23.9846C27.7186 23.9948 27.7145 24.0051 27.7102 24.0154C27.6922 24.0596 27.675 24.1043 27.6584 24.1494C27.6534 24.1632 27.6482 24.1768 27.6433 24.1906C27.6236 24.2466 27.6047 24.303 27.5874 24.3603C27.5702 24.4175 27.5548 24.4749 27.5403 24.5325ZM30.4342 27.9545C29.7494 27.7481 29.2113 27.2847 28.8928 26.7017C28.8862 26.6897 28.8798 26.6777 28.8734 26.6656C28.859 26.638 28.8447 26.6103 28.8312 26.5822C28.8275 26.5745 28.8239 26.5667 28.8202 26.5589C28.8045 26.5255 28.7892 26.4918 28.7749 26.4577C28.7748 26.4575 28.7748 26.4574 28.7747 26.4572C28.5475 25.9156 28.4997 25.2951 28.682 24.6902C28.8642 24.0853 29.2471 23.5946 29.7358 23.2687C29.7359 23.2687 29.736 23.2686 29.7361 23.2685C29.767 23.2479 29.7984 23.2284 29.8301 23.2091C29.8374 23.2047 29.8446 23.2003 29.8519 23.1959C29.8788 23.18 29.906 23.1647 29.9333 23.1497C29.9452 23.1432 29.9571 23.1368 29.9692 23.1304C30.5568 22.8206 31.2614 22.7317 31.9462 22.9381C33.3292 23.355 34.1152 24.8192 33.6983 26.2023C33.2815 27.5853 31.8172 28.3713 30.4342 27.9545Z" fill="black"/>
<path d="M15.0253 17.0322L12.6252 16.3088C11.4966 15.9686 10.3016 16.6101 9.96142 17.7388L9.23802 20.1388C8.89775 21.2675 9.53925 22.4624 10.6679 22.8026L13.068 23.526C14.1966 23.8662 15.3916 23.2248 15.7318 22.0961L16.4552 19.6961C16.7954 18.5675 16.154 17.3724 15.0253 17.0322ZM14.9103 20.8601L13.7429 20.5083C13.4407 20.4172 13.1218 20.5883 13.0307 20.8906C12.9396 21.1928 13.1107 21.5116 13.413 21.6028L14.5616 21.949C14.3427 22.3577 13.8584 22.5704 13.3978 22.4316L10.9977 21.7082C10.537 21.5693 10.251 21.1245 10.2945 20.6628L11.4431 21.009C11.7453 21.1001 12.0641 20.929 12.1552 20.6267C12.2464 20.3244 12.0752 20.0056 11.7729 19.9145L10.6055 19.5626L10.7485 19.0884L11.9159 19.4403C12.2181 19.5313 12.537 19.3602 12.6281 19.058C12.7192 18.7558 12.5481 18.4369 12.2458 18.3458L11.0821 17.995C11.2682 17.5163 11.7953 17.2525 12.2953 17.4032L14.6953 18.1266C15.1953 18.2773 15.4888 18.7885 15.3794 19.2903L14.2157 18.9395C13.9135 18.8485 13.5947 19.0196 13.5036 19.3218C13.4125 19.624 13.5836 19.9429 13.8859 20.034L15.0533 20.3859L14.9103 20.8601Z" fill="black"/>
<path d="M32.3796 34.9987L13.3253 29.2555C13.0231 29.1644 12.7042 29.3356 12.6131 29.6378C12.522 29.9401 12.6932 30.2589 12.9954 30.35L32.0497 36.0932C32.3519 36.1843 32.6708 36.0132 32.7619 35.7109C32.853 35.4086 32.6819 35.0898 32.3796 34.9987Z" fill="black"/>
<path d="M9.8366 28.2038L7.60657 27.5316C7.30437 27.4406 6.98549 27.6117 6.89438 27.9139C6.80327 28.2162 6.97441 28.535 7.27668 28.6261L9.50671 29.2983C9.8089 29.3894 10.1278 29.2183 10.2189 28.916C10.31 28.6137 10.1388 28.2949 9.8366 28.2038Z" fill="black"/>
</g>
<defs>
<clipPath id="clip0">
<rect width="40" height="40" fill="white"/>
</clipPath>
</defs>
</svg>
