<svg width="334" height="388" viewBox="0 0 334 388" fill="none" xmlns="http://www.w3.org/2000/svg">
<path d="M253.512 41.261V370.811C253.512 380.309 245.814 388 236.323 388H17.8897C8.39928 388 0.708496 380.309 0.708496 370.811V41.261C0.708496 31.7706 8.39928 24.0798 17.8897 24.0798H236.323C245.815 24.0798 253.512 31.7706 253.512 41.261Z" fill="#EAF6FF"/>
<path d="M253.512 41.261V370.811C253.512 380.309 245.814 388 236.323 388H220.342C229.832 388 237.531 380.309 237.531 370.811V290.781C237.531 285.12 232.939 280.529 227.279 280.529H193.432C180.342 280.529 172.159 266.355 178.704 255.019L231.363 163.806L231.932 162.829C235.6 156.523 237.531 149.355 237.531 142.064V41.261C237.531 31.7706 229.832 24.0798 220.342 24.0798H236.323C245.815 24.0798 253.512 31.7706 253.512 41.261Z" fill="#C8EFFE"/>
<path d="M203.02 108.985H51.1968C46.8238 108.985 43.2783 105.44 43.2783 101.067V79.3427C43.2783 74.9698 46.8238 71.4243 51.1968 71.4243H203.02C207.393 71.4243 210.938 74.9698 210.938 79.3427V101.067C210.937 105.44 207.393 108.985 203.02 108.985Z" fill="#FFD15B"/>
<path d="M210.936 79.3458V101.065C210.936 105.441 207.391 108.986 203.022 108.986H185.987C190.363 108.986 193.909 105.441 193.909 101.065V79.3458C193.909 74.9698 190.363 71.4243 185.987 71.4243H203.022C207.391 71.4243 210.936 74.9698 210.936 79.3458Z" fill="#FFC344"/>
<path d="M70.9707 179.205H52.1368C47.2447 179.205 43.2793 175.24 43.2793 170.348V151.514C43.2793 146.622 47.2447 142.656 52.1368 142.656H70.9707C75.8628 142.656 79.8282 146.622 79.8282 151.514V170.348C79.8282 175.239 75.8621 179.205 70.9707 179.205Z" fill="#FD3581"/>
<path d="M79.8322 151.516V170.351C79.8322 175.242 75.8638 179.203 70.9724 179.203H54.5142C59.4055 179.203 63.3739 175.242 63.3739 170.351V151.516C63.3739 146.625 59.4055 142.656 54.5142 142.656H70.9724C75.863 142.656 79.8322 146.625 79.8322 151.516Z" fill="#FE0364"/>
<path d="M70.9707 239.003H52.1368C47.2447 239.003 43.2793 235.037 43.2793 230.145V211.311C43.2793 206.419 47.2447 202.454 52.1368 202.454H70.9707C75.8628 202.454 79.8282 206.419 79.8282 211.311V230.145C79.8282 235.036 75.8621 239.003 70.9707 239.003Z" fill="#FD3581"/>
<path d="M79.8322 211.312V230.147C79.8322 235.038 75.8638 238.999 70.9724 238.999H54.5142C59.4055 238.999 63.3739 235.038 63.3739 230.147V211.312C63.3739 206.421 59.4055 202.452 54.5142 202.452H70.9724C75.863 202.452 79.8322 206.421 79.8322 211.312Z" fill="#FE0364"/>
<path d="M248.872 163.808L196.212 255.019C189.667 266.355 197.849 280.525 210.938 280.525H316.259C329.349 280.525 337.53 266.355 330.985 255.019L278.325 163.808C271.779 152.472 255.417 152.472 248.872 163.808Z" fill="#FFD15B"/>
<path d="M316.261 280.529H298.718C311.808 280.529 319.991 266.355 313.446 255.019L260.787 163.806C259.257 161.153 257.188 159.122 254.834 157.715C262.541 153.093 273.308 155.123 278.322 163.806L330.989 255.019C337.533 266.355 329.35 280.529 316.261 280.529Z" fill="#FFC344"/>
<path d="M145.22 154.192H97.1602C93.9747 154.192 91.3921 151.61 91.3921 148.424C91.3921 145.237 93.9747 142.656 97.1602 142.656H145.22C148.405 142.656 150.988 145.237 150.988 148.424C150.988 151.61 148.405 154.192 145.22 154.192Z" fill="#99E6FC"/>
<path d="M145.22 213.989H97.1602C93.9747 213.989 91.3921 211.407 91.3921 208.221C91.3921 205.035 93.9747 202.453 97.1602 202.453H145.22C148.405 202.453 150.988 205.035 150.988 208.221C150.988 211.407 148.405 213.989 145.22 213.989Z" fill="#99E6FC"/>
<path d="M145.22 273.787H97.1602C93.9747 273.787 91.3921 271.205 91.3921 268.019C91.3921 264.833 93.9747 262.251 97.1602 262.251H145.22C148.405 262.251 150.988 264.833 150.988 268.019C150.988 271.205 148.405 273.787 145.22 273.787Z" fill="#99E6FC"/>
<path d="M145.22 333.585H97.1602C93.9747 333.585 91.3921 331.004 91.3921 327.817C91.3921 324.631 93.9747 322.049 97.1602 322.049H145.22C148.405 322.049 150.988 324.631 150.988 327.817C150.988 331.004 148.405 333.585 145.22 333.585Z" fill="#99E6FC"/>
<path d="M43.2783 48.1574C40.0928 48.1574 37.5103 45.5756 37.5103 42.3893V5.76809C37.5103 2.5818 40.0928 0 43.2783 0C46.4639 0 49.0464 2.5818 49.0464 5.76809V42.3893C49.0464 45.5756 46.4639 48.1574 43.2783 48.1574Z" fill="#99E6FC"/>
<path d="M210.938 48.1574C207.752 48.1574 205.169 45.5756 205.169 42.3893V5.76809C205.169 2.5818 207.752 0 210.938 0C214.123 0 216.706 2.5818 216.706 5.76809V42.3893C216.706 45.5756 214.123 48.1574 210.938 48.1574Z" fill="#99E6FC"/>
<path d="M263.598 239.003C260.413 239.003 257.83 236.421 257.83 233.235V193.027C257.83 189.841 260.413 187.259 263.598 187.259C266.784 187.259 269.366 189.841 269.366 193.027V233.235C269.366 236.42 266.784 239.003 263.598 239.003Z" fill="#FD3581"/>
<path d="M197.839 179.205H97.1602C93.9747 179.205 91.3921 176.623 91.3921 173.437C91.3921 170.251 93.9747 167.669 97.1602 167.669H197.839C201.025 167.669 203.608 170.251 203.608 173.437C203.608 176.623 201.025 179.205 197.839 179.205Z" fill="#C8EFFE"/>
<path d="M166.998 239.003H97.1602C93.9747 239.003 91.3921 236.421 91.3921 233.235C91.3921 230.048 93.9747 227.466 97.1602 227.466H166.998C170.183 227.466 172.766 230.048 172.766 233.235C172.766 236.421 170.183 239.003 166.998 239.003Z" fill="#C8EFFE"/>
<path d="M176.401 298.801H97.1602C93.9747 298.801 91.3921 296.219 91.3921 293.033C91.3921 289.846 93.9747 287.265 97.1602 287.265H176.401C179.587 287.265 182.169 289.846 182.169 293.033C182.169 296.219 179.587 298.801 176.401 298.801Z" fill="#C8EFFE"/>
<path d="M197.839 358.599H97.1602C93.9747 358.599 91.3921 356.017 91.3921 352.831C91.3921 349.645 93.9747 347.063 97.1602 347.063H197.839C201.025 347.063 203.608 349.645 203.608 352.831C203.608 356.017 201.025 358.599 197.839 358.599Z" fill="#C8EFFE"/>
<path d="M263.599 260.856C266.784 260.856 269.367 258.274 269.367 255.088C269.367 251.902 266.784 249.32 263.599 249.32C260.413 249.32 257.831 251.902 257.831 255.088C257.831 258.274 260.413 260.856 263.599 260.856Z" fill="#FD3581"/>
<path d="M70.9707 298.801H52.1368C47.2447 298.801 43.2793 294.835 43.2793 289.943V271.109C43.2793 266.217 47.2447 262.252 52.1368 262.252H70.9707C75.8628 262.252 79.8282 266.217 79.8282 271.109V289.943C79.8282 294.835 75.8621 298.801 70.9707 298.801Z" fill="#FD3581"/>
<path d="M79.8322 271.108V289.943C79.8322 294.834 75.8638 298.802 70.9724 298.802H54.5142C59.4055 298.802 63.3739 294.834 63.3739 289.943V271.108C63.3739 266.217 59.4055 262.248 54.5142 262.248H70.9724C75.863 262.248 79.8322 266.217 79.8322 271.108Z" fill="#FE0364"/>
<path d="M70.9707 358.598H52.1368C47.2447 358.598 43.2793 354.633 43.2793 349.741V330.907C43.2793 326.015 47.2447 322.049 52.1368 322.049H70.9707C75.8628 322.049 79.8282 326.015 79.8282 330.907V349.741C79.8282 354.633 75.8621 358.598 70.9707 358.598Z" fill="#FD3581"/>
<path d="M79.8322 330.904V349.738C79.8322 354.63 75.8638 358.598 70.9724 358.598H54.5142C59.4055 358.598 63.3739 354.63 63.3739 349.738V330.904C63.3739 326.012 59.4055 322.052 54.5142 322.052H70.9724C75.863 322.052 79.8322 326.012 79.8322 330.904Z" fill="#FE0364"/>
</svg>
