<svg width="17" height="20" viewBox="0 0 17 20" fill="none" xmlns="http://www.w3.org/2000/svg">
<path d="M16.9839 4.80718C15.8898 4.80718 14.8804 4.44475 14.0698 3.83333C13.1401 3.13243 12.4722 2.10428 12.2363 0.919263C12.1779 0.626472 12.1464 0.324319 12.1434 0.014679H9.0182V8.55432L9.01446 13.2319C9.01446 14.4824 8.20011 15.5428 7.07125 15.9157C6.74364 16.0239 6.38981 16.0752 6.02139 16.055C5.55113 16.0291 5.11044 15.8872 4.72742 15.6581C3.91232 15.1706 3.35968 14.2862 3.3447 13.2746C3.32112 11.6934 4.59937 10.4043 6.17939 10.4043C6.49128 10.4043 6.79081 10.4552 7.07125 10.5477V8.2136V7.37454C6.77546 7.33073 6.47443 7.30789 6.17003 7.30789C4.44061 7.30789 2.82315 8.02677 1.66695 9.32187C0.793072 10.3006 0.268893 11.5493 0.188019 12.8586C0.08206 14.5786 0.71145 16.2137 1.93204 17.4201C2.11138 17.5972 2.29971 17.7615 2.49666 17.9132C3.54314 18.7185 4.82252 19.1551 6.17003 19.1551C6.47443 19.1551 6.77546 19.1326 7.07125 19.0888C8.33003 18.9024 9.49146 18.3261 10.408 17.4201C11.5343 16.3069 12.1565 14.8291 12.1633 13.2562L12.1472 6.27114C12.6845 6.68562 13.2719 7.02858 13.9024 7.29479C14.883 7.70851 15.9228 7.91819 16.9928 7.91781V5.64849V4.80643C16.9936 4.80718 16.9846 4.80718 16.9839 4.80718Z" fill="#C61212"/>
</svg>
