<svg width="30" height="32" viewBox="0 0 30 32" fill="none" xmlns="http://www.w3.org/2000/svg">
<path d="M29.0202 8.02435C27.1939 8.02435 25.5089 7.41935 24.1558 6.39873C22.6039 5.22873 21.4889 3.51248 21.0952 1.53435C20.9977 1.0456 20.9452 0.541228 20.9402 0.024353H15.7233V14.2794L15.7171 22.0875C15.7171 24.175 14.3577 25.945 12.4733 26.5675C11.9264 26.7481 11.3358 26.8337 10.7208 26.8C9.93582 26.7569 9.20019 26.52 8.56082 26.1375C7.20019 25.3237 6.27769 23.8475 6.25269 22.1587C6.21332 19.5194 8.34707 17.3675 10.9846 17.3675C11.5052 17.3675 12.0052 17.4525 12.4733 17.6069V13.7106V12.31C11.9796 12.2369 11.4771 12.1987 10.9689 12.1987C8.08207 12.1987 5.38207 13.3987 3.45207 15.5606C1.99332 17.1944 1.11832 19.2787 0.983317 21.4644C0.806442 24.3356 1.85707 27.065 3.89457 29.0787C4.19394 29.3744 4.50832 29.6487 4.83707 29.9019C6.58394 31.2462 8.71957 31.975 10.9689 31.975C11.4771 31.975 11.9796 31.9375 12.4733 31.8644C14.5746 31.5531 16.5133 30.5912 18.0433 29.0787C19.9233 27.2206 20.9621 24.7537 20.9733 22.1281L20.9464 10.4681C21.8433 11.16 22.8239 11.7325 23.8764 12.1769C25.5133 12.8675 27.2489 13.2175 29.0352 13.2169V9.42873V8.0231C29.0364 8.02435 29.0214 8.02435 29.0202 8.02435Z" fill="black"/>
</svg>
