<svg width="76" height="25" viewBox="0 0 76 25" fill="none" xmlns="http://www.w3.org/2000/svg">
<path fill-rule="evenodd" clip-rule="evenodd" d="M53.9819 24.6217L60.4014 24.6273L61.6365 21.1324L69.4836 21.1365L70.0442 23.8584C70.1624 24.4312 70.056 24.3777 70.4162 24.6277L75.8767 24.6275L70.9532 1.33476C69.3782 1.29989 67.6281 1.27225 66.0437 1.32595C64.3172 1.38451 63.5598 2.02609 63.0026 3.28173C61.9749 5.59746 60.9784 7.96333 60.0034 10.3363L55.5055 20.9184C55.0662 21.959 54.2417 23.6025 53.9821 24.6215L53.9819 24.6217ZM63.4319 16.3086L68.4518 16.3482L67.1162 9.87345C66.8687 8.71085 66.8643 8.2468 66.5714 7.77316L63.4319 16.3087V16.3086Z" fill="#004E98"/>
<path fill-rule="evenodd" clip-rule="evenodd" d="M37.854 18.5577C37.4748 19.1118 36.9991 22.7874 36.9233 23.7559C40.4648 25.0227 45.0225 25.4845 48.7383 24.2004C54.3393 22.2648 56.8888 15.627 51.2382 11.7828C49.7926 10.7993 48.1166 10.2333 46.7038 9.20968C44.7204 7.77307 46.2376 6.06471 48.5025 5.81058C51.6162 5.46117 52.9331 6.55349 54.3987 6.84223L55.253 1.91585C52.6518 0.305658 42.8193 -0.0731006 40.0755 5.72451C38.1425 9.80901 40.5744 12.7334 44.0593 14.5648C45.3879 15.2631 47.8643 16.12 47.9494 17.7115C48.0637 19.8497 45.1475 20.1579 43.2782 20.0617C40.8195 19.9355 39.7913 19.3067 37.8541 18.5577H37.854Z" fill="#004E98"/>
<path fill-rule="evenodd" clip-rule="evenodd" d="M14.8892 12.9734L13.2587 10.2664C11.9241 8.31166 8.55327 4.90611 6.83301 4.49748L12.1959 24.5772L18.7127 24.5918L28.3043 1.33382L21.7899 1.31526L18.8457 9.24106C18.3907 10.457 16.2017 16.4568 15.8225 17.0862C15.5534 15.7324 15.0936 14.0778 14.8894 12.9734H14.8892Z" fill="#004E98"/>
<path fill-rule="evenodd" clip-rule="evenodd" d="M26.957 24.6107L33.0926 24.6129L36.9033 1.30297L30.7619 1.29929L26.957 24.6107Z" fill="#004E98"/>
<path fill-rule="evenodd" clip-rule="evenodd" d="M6.83114 4.49865C8.55141 4.90729 11.9222 8.31284 13.2568 10.2676L14.8874 12.9746C14.931 11.8191 14.1243 8.60106 13.8686 7.28658C13.5913 5.86169 13.1799 2.84148 12.4278 2.05961C11.3845 0.975576 8.60123 1.27985 6.75064 1.28011C5.71392 1.28024 1.02369 1.12982 0.428633 1.35815C0.382489 2.08856 1.19648 2.01539 1.9178 2.2428C3.04263 2.59735 6.26588 3.78009 6.83127 4.49852L6.83114 4.49865Z" fill="#F8A604"/>
</svg>
