<svg width="51" height="44" viewBox="0 0 51 44" fill="none" xmlns="http://www.w3.org/2000/svg">
<path d="M39.6601 13.9171H35.911L37.0406 0.947785C37.0427 0.924291 37.0431 0.901146 37.0432 0.878001C37.0432 0.876024 37.0434 0.874163 37.0434 0.872186C37.0434 0.871837 37.0434 0.871605 37.0434 0.871256C37.0434 0.518264 36.8304 0.207143 36.5175 0.0718781C36.5148 0.0707151 36.5122 0.0693196 36.5096 0.0681566C36.4901 0.0600151 36.47 0.0530363 36.4498 0.0462905C36.4422 0.043848 36.435 0.0408239 36.4274 0.0384977C36.4109 0.0334965 36.3939 0.0295422 36.3771 0.0254714C36.3652 0.0226801 36.3538 0.0193074 36.3418 0.0169812C36.3271 0.0140736 36.3117 0.0122129 36.2966 0.0100031C36.2824 0.00790959 36.2685 0.00546679 36.2541 0.00418741C36.2517 0.0039548 36.2495 0.00348919 36.2471 0.00325658C36.2317 0.0018609 36.2166 0.00209358 36.2013 0.00151205C36.1911 0.00116313 36.1811 0 36.1709 0H36.1599C36.159 0 36.1581 0 36.1573 0H18.3192C17.8376 0 17.4468 0.390791 17.4468 0.872302C17.4468 1.35265 17.8376 1.7446 18.3192 1.7446H35.2201L33.4841 21.6767C33.4838 21.6782 33.4838 21.6797 33.4836 21.6812L33.0456 26.7105H2.73496L3.24194 21.4769H9.0132C9.49506 21.4769 9.88551 21.0863 9.88551 20.6046C9.88551 20.1228 9.49506 19.7323 9.0132 19.7323H3.41105L4.48154 8.68371H13.6669C14.1487 8.68371 14.5392 8.29315 14.5392 7.81141C14.5392 7.32966 14.1487 6.93911 13.6669 6.93911H4.65065L5.15403 1.7446H19.3659C19.8463 1.7446 20.2382 1.35265 20.2382 0.872302C20.2382 0.390791 19.8463 0 19.3659 0H4.36232C4.36186 0 4.36151 0.000116243 4.36104 0.000116243C3.9513 -6.38948e-08 3.59586 0.288442 3.50991 0.688305C3.50933 0.691213 3.50828 0.694004 3.5077 0.696912C3.50328 0.718661 3.50037 0.740876 3.49747 0.763206C3.49665 0.770301 3.49514 0.777047 3.49444 0.784142C3.49432 0.785537 3.49398 0.786816 3.49386 0.788212L2.8979 6.93911H2.67471C2.19285 6.93911 1.80241 7.32966 1.80241 7.81141C1.80241 8.29315 2.19285 8.68371 2.67471 8.68371H2.72879L1.6583 19.7323H1.45372C0.971861 19.7323 0.581418 20.1228 0.581418 20.6046C0.581418 21.0863 0.971861 21.4769 1.45372 21.4769H1.48931L0.90638 27.4924C0.906263 27.4933 0.906264 27.4943 0.906147 27.4951L0.00488487 36.7972C0.00476856 36.7982 0.00465245 36.7994 0.00453614 36.8003L0.00418741 36.8037C0.00302434 36.8158 0.00314072 36.8277 0.00244288 36.8398C0.00162873 36.8558 0 36.8715 0 36.8878C0 36.8885 0.000116243 36.8892 0.000116243 36.89C0.000116243 36.9124 0.00174453 36.9345 0.00337282 36.9566C0.00407066 36.9637 0.00383823 36.9709 0.00465238 36.9779C0.00697852 37.0005 0.0108164 37.0227 0.0148871 37.0448C0.0160502 37.0513 0.0166318 37.0579 0.0179112 37.0643C0.0212841 37.0811 0.0260529 37.0973 0.0304725 37.1137C0.0334965 37.1252 0.0359394 37.1369 0.0394286 37.1482C0.0404753 37.1513 0.0418709 37.1544 0.0428014 37.1576C0.0850208 37.2874 0.156666 37.404 0.250176 37.4991C0.251921 37.5008 0.253317 37.5028 0.255061 37.5044C0.264366 37.5138 0.274484 37.5221 0.284254 37.531C0.344385 37.5861 0.412308 37.6329 0.486628 37.6695C0.502097 37.6772 0.517333 37.6852 0.533151 37.6918C0.537919 37.6939 0.543037 37.6953 0.547922 37.6972C0.569787 37.7059 0.59177 37.7143 0.61445 37.7214C0.616544 37.7219 0.61852 37.7223 0.620614 37.723C0.646434 37.7307 0.672487 37.7374 0.699121 37.7429C0.70261 37.7436 0.706215 37.7438 0.709588 37.7445C0.734943 37.7493 0.760415 37.7533 0.786351 37.7559C0.786933 37.7559 0.787398 37.756 0.78798 37.7561C0.816591 37.7589 0.84497 37.7603 0.873116 37.7603C0.873465 37.7603 0.873931 37.7602 0.874396 37.7602H4.75765C5.18647 41.0113 7.97377 43.5294 11.3403 43.5294C14.7065 43.5294 17.4938 41.0113 17.9227 37.7602H31.9143C32.3432 41.0113 35.1304 43.5294 38.4968 43.5294C41.863 43.5294 44.6506 41.0113 45.0795 37.7602H48.9637C48.9643 37.7602 48.965 37.7603 48.9656 37.7603C48.9946 37.7603 49.0233 37.7586 49.0516 37.7558C49.0567 37.7553 49.0616 37.7543 49.0667 37.7537C49.0894 37.751 49.112 37.7479 49.1341 37.7435C49.1436 37.7416 49.1528 37.739 49.1622 37.7368C49.1793 37.7329 49.1965 37.7287 49.2133 37.7237C49.2247 37.7203 49.2357 37.7164 49.2469 37.7125C49.2612 37.7076 49.2755 37.7025 49.2896 37.6968C49.3017 37.692 49.3132 37.6868 49.325 37.6816C49.3377 37.6757 49.3505 37.6696 49.363 37.6632C49.3748 37.6572 49.3862 37.6509 49.3976 37.6444C49.4096 37.6374 49.4215 37.6302 49.4332 37.6227C49.4442 37.6158 49.4551 37.6087 49.4656 37.6012C49.4774 37.593 49.4887 37.5842 49.5002 37.5754C49.5098 37.5678 49.5194 37.5604 49.5287 37.5525C49.5407 37.5424 49.552 37.5318 49.5634 37.521C49.5713 37.5134 49.5795 37.506 49.5872 37.4981C49.5993 37.4857 49.6108 37.4727 49.6223 37.4595C49.6285 37.4525 49.6349 37.4456 49.6408 37.4384C49.6536 37.4226 49.6653 37.4063 49.6769 37.3899C49.6809 37.3842 49.6853 37.3788 49.6891 37.373C49.7033 37.3517 49.7167 37.3299 49.729 37.3073C49.7299 37.3059 49.7309 37.3046 49.7314 37.3031C49.7446 37.2789 49.7567 37.2542 49.7675 37.2286C49.7705 37.2212 49.7728 37.2137 49.7758 37.2064C49.7828 37.1883 49.7898 37.1703 49.7958 37.1516C49.7996 37.1395 49.8024 37.127 49.8058 37.1148C49.8096 37.1003 49.8137 37.0859 49.8169 37.0711C49.8198 37.0579 49.8217 37.0445 49.8239 37.0311C49.8259 37.0193 49.8284 37.0078 49.83 36.9958C49.8669 36.6995 50.55 31.2192 50.8551 27.6756C50.8554 27.6722 50.8555 27.6687 50.8559 27.6653C50.9437 26.6438 51 25.7836 51 25.257C51 19.0042 45.913 13.9171 39.6601 13.9171ZM35.759 15.6619H39.3277L38.8719 20.8952H35.3032L35.759 15.6619ZM11.3405 41.7847C8.64021 41.7847 6.4434 39.5879 6.4434 36.8877C6.4434 34.1875 8.64032 31.9907 11.3405 31.9907C14.0407 31.9907 16.2375 34.1875 16.2375 36.8877C16.2375 39.5879 14.0407 41.7847 11.3405 41.7847ZM38.4968 41.7847C35.7966 41.7847 33.5999 39.5879 33.5999 36.8877C33.5999 34.1875 35.7967 31.9907 38.4968 31.9907C41.1971 31.9907 43.3939 34.1875 43.3939 36.8877C43.3939 39.5879 41.1971 41.7847 38.4968 41.7847ZM48.1929 36.015H45.0798C44.651 32.7637 41.8636 30.2455 38.497 30.2455C35.1306 30.2455 32.3432 32.7638 31.9145 36.015H17.923C17.4943 32.7637 14.707 30.2455 11.3405 30.2455C7.974 30.2455 5.18647 32.7638 4.75777 36.015H1.83335L2.56596 28.4546H33.845V28.4551C33.8454 28.4551 33.8458 28.4551 33.8462 28.4551C33.8754 28.4551 33.9044 28.4534 33.933 28.4505C33.9384 28.4501 33.9436 28.4489 33.9489 28.4482C33.9717 28.4455 33.9944 28.4423 34.0168 28.4379C34.0264 28.4359 34.0358 28.4332 34.0454 28.4309C34.0628 28.4267 34.0803 28.4226 34.0972 28.4175C34.1089 28.414 34.1199 28.4098 34.1312 28.4059C34.1459 28.4008 34.1605 28.3958 34.1747 28.3899C34.1869 28.3849 34.1987 28.3794 34.2105 28.3738C34.2234 28.3678 34.2363 28.3619 34.2488 28.3554C34.2606 28.3491 34.2723 28.3424 34.284 28.3356C34.296 28.3286 34.3079 28.3215 34.3195 28.3141C34.3308 28.3068 34.3415 28.2991 34.3523 28.2914C34.3638 28.2833 34.375 28.2749 34.3861 28.2662C34.3961 28.2582 34.406 28.2499 34.4158 28.2414C34.4268 28.2319 34.4377 28.2221 34.4481 28.212C34.457 28.2035 34.4658 28.1948 34.4744 28.1858C34.4849 28.1749 34.495 28.1636 34.505 28.1521C34.5128 28.143 34.5205 28.1339 34.5279 28.1246C34.5376 28.1124 34.5468 28.0999 34.5558 28.0872C34.5627 28.0777 34.5693 28.0681 34.5758 28.0583C34.5843 28.0452 34.5925 28.0317 34.6003 28.018C34.6062 28.0078 34.6122 27.9975 34.6176 27.987C34.6249 27.9733 34.6312 27.9594 34.6378 27.9453C34.6429 27.934 34.6482 27.923 34.6528 27.9113C34.6585 27.8976 34.6633 27.8835 34.6683 27.8695C34.6726 27.857 34.6771 27.8446 34.681 27.8318C34.6848 27.8183 34.688 27.8044 34.6914 27.7907C34.6948 27.7769 34.6985 27.7632 34.7012 27.7491C34.7039 27.7354 34.7055 27.7214 34.7076 27.7074C34.7097 27.693 34.7121 27.6788 34.7135 27.6642C34.7138 27.6621 34.7142 27.6601 34.7144 27.658L35.1516 22.6394H39.6598C42.3325 22.6394 43.5379 24.0241 44.8139 25.4903C45.8668 26.7 47.0423 28.0497 49.0405 28.379C48.7867 31.0622 48.3765 34.5068 48.1929 36.015ZM49.1896 26.6309C47.8933 26.3667 47.0958 25.4554 46.1297 24.3454C44.9213 22.9572 43.4462 21.2632 40.6184 20.9476L41.0697 15.7663C45.6945 16.4503 49.2554 20.4452 49.2554 25.2572C49.2554 25.5842 49.231 26.0591 49.1896 26.6309Z" fill="black"/>
<path d="M11.3408 33.6895C9.57723 33.6895 8.14235 35.1242 8.14235 36.8879C8.14235 38.6516 9.57723 40.0863 11.3408 40.0863C13.1044 40.0863 14.5392 38.6516 14.5392 36.8879C14.5392 35.1243 13.1044 33.6895 11.3408 33.6895ZM11.3408 38.3417C10.5391 38.3417 9.88695 37.6896 9.88695 36.8879C9.88695 36.0862 10.5391 35.4341 11.3408 35.4341C12.1425 35.4341 12.7946 36.0862 12.7946 36.8879C12.7946 37.6896 12.1424 38.3417 11.3408 38.3417Z" fill="black"/>
<path d="M38.4972 33.6895C36.7336 33.6895 35.2987 35.1242 35.2987 36.8879C35.2987 38.6516 36.7336 40.0863 38.4972 40.0863C40.2607 40.0863 41.6956 38.6516 41.6956 36.8879C41.6956 35.1243 40.2607 33.6895 38.4972 33.6895ZM38.4972 38.3417C37.6955 38.3417 37.0433 37.6896 37.0433 36.8879C37.0433 36.0862 37.6955 35.4341 38.4972 35.4341C39.2989 35.4341 39.951 36.0862 39.951 36.8879C39.951 37.6896 39.2989 38.3417 38.4972 38.3417Z" fill="black"/>
</svg>
